<?xml version="1.0" encoding="UTF-8" standalone="no"?>
<svg
   xmlns:dc="http://purl.org/dc/elements/1.1/"
   xmlns:cc="http://creativecommons.org/ns#"
   xmlns:rdf="http://www.w3.org/1999/02/22-rdf-syntax-ns#"
   xmlns:svg="http://www.w3.org/2000/svg"
   xmlns="http://www.w3.org/2000/svg"
   xmlns:sodipodi="http://sodipodi.sourceforge.net/DTD/sodipodi-0.dtd"
   xmlns:inkscape="http://www.inkscape.org/namespaces/inkscape"
   width="92.604279mm"
   height="109.41856mm"
   viewBox="0 0 92.604279 109.41856"
   version="1.1"
   id="svg1881"
   inkscape:version="1.0.1 (3bc2e813f5, 2020-09-07)"
   sodipodi:docname="unlp.svg">
  <defs
     id="defs1875" />
  <sodipodi:namedview
     id="base"
     pagecolor="#ffffff"
     bordercolor="#666666"
     borderopacity="1.0"
     inkscape:pageopacity="0.0"
     inkscape:pageshadow="2"
     inkscape:zoom="0.98994949"
     inkscape:cx="68.75349"
     inkscape:cy="237.85603"
     inkscape:document-units="mm"
     inkscape:current-layer="layer1"
     inkscape:document-rotation="0"
     showgrid="false"
     fit-margin-top="0"
     fit-margin-left="0"
     fit-margin-right="0"
     fit-margin-bottom="0"
     inkscape:window-width="1920"
     inkscape:window-height="908"
     inkscape:window-x="0"
     inkscape:window-y="172"
     inkscape:window-maximized="0" />
  <metadata
     id="metadata1878">
    <rdf:RDF>
      <cc:Work
         rdf:about="">
        <dc:format>image/svg+xml</dc:format>
        <dc:type
           rdf:resource="http://purl.org/dc/dcmitype/StillImage" />
        <dc:title></dc:title>
      </cc:Work>
    </rdf:RDF>
  </metadata>
  <g
     inkscape:label="Layer 1"
     inkscape:groupmode="layer"
     id="layer1"
     transform="translate(-80.569332,-43.744229)">
    <g
       id="g24"
       transform="matrix(2.2929909,0,0,-2.2929909,170.92043,94.628087)">
      <path
         d="m 0,0 c -0.126,-0.045 -2.019,-0.637 -2.884,-0.906 0.27,1.652 0.377,4.557 -0.324,6.624 0.21,0.039 0.407,0.08 0.573,0.119 0.134,0.033 0.232,0.142 0.243,0.277 0.227,2.604 -0.473,5.365 -1.981,8.115 -1.643,3 -3.774,5.38 -6.44,6.467 -0.135,0.055 -0.291,0.01 -0.375,-0.105 -0.152,-0.207 -0.371,-0.499 -0.615,-0.823 -1.537,1.022 -4.131,2.172 -7.549,2.172 -3.33,0 -6.03,-1.195 -7.518,-2.172 -0.208,0.279 -0.397,0.528 -0.528,0.702 -0.085,0.119 -0.239,0.16 -0.377,0.107 -2.667,-1.087 -4.791,-3.348 -6.433,-6.348 -1.504,-2.75 -2.213,-5.533 -1.984,-8.132 0.014,-0.133 0.111,-0.248 0.241,-0.28 0.162,-0.039 0.347,-0.078 0.551,-0.115 -0.719,-2.047 -0.758,-4.862 -0.502,-6.483 -0.059,0.014 -0.112,0.026 -0.155,0.037 -2.445,0.621 -2.452,0.621 -2.514,0.621 -0.145,0 -0.27,-0.092 -0.307,-0.227 -0.616,-2.258 -0.143,-10.212 4.458,-16.189 2.375,-3.079 5.686,-5.232 9.456,-6.265 -0.229,-0.468 -0.58,-1.133 -0.795,-1.5 -0.046,-0.08 -0.046,-0.182 -0.006,-0.263 0.039,-0.083 0.137,-0.082 0.226,-0.09 1.186,-0.173 3.112,-0.522 3.28,-0.53 0.127,-0.025 0.28,0.028 0.375,0.13 0.197,0.214 0.416,0.806 0.631,1.581 0.643,-0.05 1.518,-0.017 2.191,-0.017 h 0.005 c 0.553,0 1.351,-0.039 1.883,-0.004 0.209,-0.766 0.428,-1.346 0.631,-1.56 0.097,-0.102 0.243,-0.155 0.373,-0.13 0.163,0.008 1.951,0.383 3.139,0.552 0.091,0.013 0.181,0.005 0.227,0.091 0.042,0.084 0.034,0.182 -0.009,0.264 -0.208,0.362 -0.55,0.953 -0.779,1.416 3.648,1.027 6.988,3.228 9.359,6.333 4.797,6.288 5.176,14.493 4.659,16.326 z"
         style="fill:#ffffff;fill-opacity:1;fill-rule:nonzero;stroke:none"
         id="path26" />
    </g>
    <g
       id="g28"
       transform="matrix(2.2929909,0,0,-2.2929909,147.86739,51.84065)">
      <path
         d="m 0,0 0.06,-0.051 c 0.069,-0.053 0.116,-0.11 0.138,-0.16 0.028,-0.057 0.038,-0.107 0.03,-0.164 C 0.226,-0.432 0.209,-0.492 0.174,-0.551 0.139,-0.617 0.093,-0.684 0.037,-0.752 -0.09,-0.91 -0.212,-1 -0.325,-1.021 c -0.018,-0.002 -0.033,-0.004 -0.051,-0.004 -0.093,0 -0.191,0.042 -0.293,0.118 l -0.037,0.03 z m -0.591,-1.224 c 0.099,-0.053 0.194,-0.085 0.291,-0.092 h 0.039 c 0.088,0 0.182,0.024 0.271,0.07 0.099,0.053 0.203,0.143 0.305,0.271 0.11,0.133 0.175,0.25 0.205,0.358 0.031,0.109 0.033,0.215 0.004,0.312 C 0.498,-0.211 0.443,-0.119 0.371,-0.04 0.302,0.034 0.219,0.109 0.129,0.184 l -0.248,0.195 -0.985,-1.223 0.24,-0.189 c 0.089,-0.074 0.181,-0.14 0.273,-0.191"
         style="fill:#191716;fill-opacity:1;fill-rule:nonzero;stroke:none"
         id="path30" />
    </g>
    <g
       id="g32"
       transform="matrix(2.2929909,0,0,-2.2929909,148.97122,57.049168)">
      <path
         d="M 0,0 0.166,0.162 -0.229,0.564 0.104,0.893 0.38,0.617 0.544,0.773 0.269,1.055 0.553,1.332 0.919,0.955 1.096,1.123 0.49,1.736 -0.636,0.637 Z"
         style="fill:#191716;fill-opacity:1;fill-rule:nonzero;stroke:none"
         id="path34" />
    </g>
    <g
       id="g36"
       transform="matrix(2.2929909,0,0,-2.2929909,151.75238,60.513201)">
      <path
         d="M 0,0 0.193,0.145 -0.144,0.584 0.921,1.384 0.713,1.653 -0.545,0.711 Z"
         style="fill:#191716;fill-opacity:1;fill-rule:nonzero;stroke:none"
         id="path38" />
    </g>
    <g
       id="g40"
       transform="matrix(2.2929909,0,0,-2.2929909,154.71287,60.499662)">
      <path
         d="m 0,0 -0.237,-0.332 -0.161,0.244 z m -1.125,-0.256 0.492,0.115 0.25,-0.379 -0.294,-0.412 0.201,-0.302 0.975,1.379 -0.137,0.203 -1.648,-0.364 z"
         style="fill:#191716;fill-opacity:1;fill-rule:nonzero;stroke:none"
         id="path42" />
    </g>
    <g
       id="g44"
       transform="matrix(2.2929909,0,0,-2.2929909,158.01341,64.857269)">
      <path
         d="M 0,0 0.05,-0.105 C 0.088,-0.178 0.104,-0.24 0.088,-0.295 0.08,-0.342 0.04,-0.383 -0.034,-0.42 c -0.045,-0.023 -0.081,-0.037 -0.122,-0.035 -0.032,0.002 -0.057,0.012 -0.082,0.027 -0.028,0.024 -0.052,0.051 -0.071,0.084 -0.024,0.039 -0.05,0.082 -0.069,0.123 l -0.014,0.022 z m -1.211,-0.611 0.621,0.31 0.008,-0.027 c 0.037,-0.057 0.069,-0.119 0.103,-0.182 0.044,-0.07 0.087,-0.129 0.142,-0.176 0.061,-0.054 0.125,-0.084 0.201,-0.099 0.021,-0.004 0.038,-0.006 0.059,-0.006 0.06,0 0.131,0.018 0.205,0.057 0.097,0.048 0.163,0.107 0.199,0.175 0.036,0.069 0.047,0.139 0.043,0.215 -0.007,0.073 -0.025,0.141 -0.058,0.213 -0.03,0.065 -0.063,0.129 -0.092,0.186 L 0.045,0.396 -0.019,0.363 c 0,0 -0.169,-0.086 -0.197,-0.103 l -1.145,-0.578 z"
         style="fill:#191716;fill-opacity:1;fill-rule:nonzero;stroke:none"
         id="path46" />
    </g>
    <g
       id="g48"
       transform="matrix(2.2929909,0,0,-2.2929909,156.94074,69.953899)">
      <path
         d="M 0,0 0.221,0.092 0.004,0.6 1.233,1.121 1.097,1.436 -0.353,0.822 Z"
         style="fill:#191716;fill-opacity:1;fill-rule:nonzero;stroke:none"
         id="path50" />
    </g>
    <g
       id="g52"
       transform="matrix(2.2929909,0,0,-2.2929909,159.87209,70.813773)">
      <path
         d="m 0,0 -0.312,-0.26 -0.097,0.274 z m -1.156,0.031 0.509,-0.01 0.148,-0.427 -0.393,-0.327 0.116,-0.344 1.297,1.091 -0.079,0.236 -1.687,0.057 z"
         style="fill:#191716;fill-opacity:1;fill-rule:nonzero;stroke:none"
         id="path54" />
    </g>
    <g
       id="g56"
       transform="matrix(2.2929909,0,0,-2.2929909,161.1908,73.046225)">
      <path
         d="m 0,0 -1.298,-0.33 0.08,-0.319 1.305,0.326 0.11,-0.442 0.228,0.064 -0.309,1.202 -0.227,-0.059 z"
         style="fill:#191716;fill-opacity:1;fill-rule:nonzero;stroke:none"
         id="path58" />
    </g>
    <g
       id="g60"
       transform="matrix(2.2929909,0,0,-2.2929909,161.28046,76.272922)">
      <path
         d="m 0,0 -0.354,-0.203 -0.048,0.285 z m -1.134,0.229 0.499,-0.098 0.071,-0.446 -0.442,-0.255 0.055,-0.36 1.462,0.857 -0.037,0.24 -1.65,0.348 z"
         style="fill:#191716;fill-opacity:1;fill-rule:nonzero;stroke:none"
         id="path62" />
    </g>
    <g
       id="g64"
       transform="matrix(2.2929909,0,0,-2.2929909,114.6548,50.423118)">
      <path
         d="m 0,0 0.483,-1.095 0.257,0.112 -0.414,0.922 0.966,-0.68 0.27,0.117 L 0.951,0.753 0.697,0.643 1.077,-0.208 0.194,0.42 -0.125,0.28 -0.101,0.216 c 0,0 0.083,-0.184 0.101,-0.216"
         style="fill:#191716;fill-opacity:1;fill-rule:nonzero;stroke:none"
         id="path66" />
    </g>
    <g
       id="g68"
       transform="matrix(2.2929909,0,0,-2.2929909,119.60582,49.048238)">
      <path
         d="m 0,0 0.22,-0.306 -0.263,-0.068 z m -0.066,-0.606 0.414,0.105 0.282,-0.393 0.346,0.09 -0.957,1.307 -0.23,-0.057 -0.178,-1.601 0.275,0.068 z"
         style="fill:#191716;fill-opacity:1;fill-rule:nonzero;stroke:none"
         id="path70" />
    </g>
    <g
       id="g72"
       transform="matrix(2.2929909,0,0,-2.2929909,121.87427,49.784973)">
      <path
         d="m 0,0 c 0.039,-0.097 0.096,-0.184 0.16,-0.248 0.064,-0.066 0.145,-0.117 0.231,-0.149 0.07,-0.028 0.146,-0.04 0.221,-0.04 0.025,0 0.043,0 0.068,0.001 0.039,0.006 0.077,0.011 0.117,0.018 0.033,0.01 0.069,0.021 0.099,0.027 0.032,0.007 0.059,0.014 0.083,0.022 0.027,0.01 0.041,0.016 0.053,0.019 l 0.044,0.022 -0.035,0.316 -0.097,-0.06 C 0.914,-0.092 0.875,-0.114 0.83,-0.139 0.792,-0.159 0.738,-0.177 0.674,-0.186 0.666,-0.187 0.655,-0.187 0.645,-0.187 c -0.047,0 -0.086,0.01 -0.124,0.028 C 0.474,-0.133 0.436,-0.097 0.403,-0.053 0.368,-0.002 0.339,0.059 0.32,0.129 0.296,0.199 0.278,0.281 0.271,0.371 0.268,0.449 0.26,0.525 0.26,0.59 0.267,0.649 0.271,0.696 0.287,0.739 0.297,0.775 0.32,0.799 0.35,0.822 0.382,0.847 0.429,0.858 0.492,0.868 0.523,0.87 0.559,0.872 0.589,0.87 0.623,0.87 0.655,0.866 0.685,0.862 0.714,0.858 0.741,0.853 0.764,0.847 0.789,0.841 0.808,0.836 0.83,0.829 L 0.928,0.799 0.892,1.103 0.835,1.11 C 0.801,1.11 0.76,1.114 0.701,1.114 H 0.68 C 0.626,1.114 0.568,1.11 0.506,1.104 0.285,1.083 0.121,1.005 0.026,0.868 -0.058,0.739 -0.094,0.551 -0.078,0.318 -0.064,0.199 -0.038,0.093 0,0"
         style="fill:#191716;fill-opacity:1;fill-rule:nonzero;stroke:none"
         id="path74" />
    </g>
    <g
       id="g76"
       transform="matrix(2.2929909,0,0,-2.2929909,125.71229,50.568735)">
      <path
         d="M 0,0 -0.097,1.501 -0.418,1.481 -0.317,-0.02 Z"
         style="fill:#191716;fill-opacity:1;fill-rule:nonzero;stroke:none"
         id="path78" />
    </g>
    <g
       id="g80"
       transform="matrix(2.2929909,0,0,-2.2929909,127.24835,48.831106)">
      <path
         d="M 0,0 C 0,0.071 0.003,0.14 0.011,0.213 0.017,0.276 0.029,0.338 0.055,0.393 0.071,0.442 0.101,0.483 0.14,0.509 0.169,0.534 0.208,0.55 0.263,0.552 H 0.276 C 0.349,0.55 0.392,0.532 0.425,0.503 0.458,0.472 0.488,0.429 0.504,0.377 0.523,0.323 0.537,0.254 0.539,0.193 0.542,0.117 0.542,0.054 0.542,-0.012 0.539,-0.078 0.537,-0.146 0.529,-0.219 0.521,-0.285 0.51,-0.346 0.483,-0.4 0.467,-0.449 0.438,-0.49 0.4,-0.521 0.371,-0.546 0.33,-0.56 0.279,-0.56 H 0.263 c -0.067,0 -0.117,0.018 -0.147,0.048 -0.038,0.033 -0.061,0.075 -0.08,0.128 C 0.017,-0.33 0.003,-0.266 0.001,-0.199 -0.004,-0.126 -0.004,-0.059 0,0 m -0.232,-0.537 c 0.046,-0.072 0.11,-0.132 0.19,-0.175 0.078,-0.043 0.182,-0.063 0.3,-0.067 h 0.048 c 0.093,0.004 0.174,0.021 0.242,0.05 0.082,0.04 0.147,0.093 0.202,0.163 0.044,0.066 0.081,0.15 0.104,0.243 0.02,0.091 0.034,0.192 0.036,0.305 0,0.104 -0.005,0.205 -0.024,0.294 C 0.85,0.373 0.817,0.456 0.772,0.526 0.725,0.601 0.662,0.657 0.578,0.704 0.504,0.745 0.405,0.767 0.288,0.769 0.173,0.771 0.071,0.755 -0.009,0.722 -0.089,0.683 -0.153,0.63 -0.205,0.562 -0.255,0.493 -0.291,0.408 -0.314,0.316 -0.335,0.223 -0.346,0.119 -0.349,0.007 c -0.001,-0.105 0.003,-0.204 0.024,-0.294 0.013,-0.097 0.045,-0.18 0.093,-0.25"
         style="fill:#191716;fill-opacity:1;fill-rule:nonzero;stroke:none"
         id="path82" />
    </g>
    <g
       id="g84"
       transform="matrix(2.2929909,0,0,-2.2929909,130.69679,48.470405)">
      <path
         d="M 0,0 0.441,-1.091 0.733,-1.135 0.964,0.352 0.688,0.395 0.548,-0.524 0.142,0.477 -0.209,0.529 -0.218,0.461 c 0,0 -0.021,-0.198 -0.03,-0.238 l -0.185,-1.18 0.276,-0.041 z"
         style="fill:#191716;fill-opacity:1;fill-rule:nonzero;stroke:none"
         id="path86" />
    </g>
    <g
       id="g88"
       transform="matrix(2.2929909,0,0,-2.2929909,134.91106,49.341523)">
      <path
         d="m 0,0 0.034,-0.375 -0.258,0.076 z M -0.657,-0.873 -0.37,-0.485 0.044,-0.608 0.085,-1.09 0.428,-1.189 0.28,0.422 0.05,0.488 -0.931,-0.791 Z"
         style="fill:#191716;fill-opacity:1;fill-rule:nonzero;stroke:none"
         id="path90" />
    </g>
    <g
       id="g92"
       transform="matrix(2.2929909,0,0,-2.2929909,138.25656,52.494383)">
      <path
         d="m 0,0 -0.487,0.213 0.51,1.156 -0.307,0.134 -0.602,-1.38 0.789,-0.341 z"
         style="fill:#191716;fill-opacity:1;fill-rule:nonzero;stroke:none"
         id="path94" />
    </g>
    <g
       id="g96"
       transform="matrix(2.2929909,0,0,-2.2929909,93.142405,78.61087)">
      <path
         d="M 0,0 H 0.004 C 0.077,0 0.145,0.016 0.208,0.043 0.271,0.072 0.325,0.125 0.369,0.197 0.414,0.266 0.439,0.361 0.46,0.485 0.479,0.611 0.473,0.712 0.447,0.798 0.421,0.881 0.382,0.946 0.324,0.994 0.271,1.043 0.208,1.076 0.139,1.097 0.071,1.115 0.006,1.127 -0.062,1.139 L -0.992,1.27 -1.032,0.976 -0.079,0.84 C -0.034,0.832 0.019,0.827 0.064,0.813 0.104,0.805 0.139,0.791 0.168,0.77 0.199,0.75 0.219,0.721 0.234,0.684 0.244,0.658 0.253,0.609 0.241,0.513 0.232,0.454 0.213,0.412 0.187,0.389 0.158,0.361 0.126,0.342 0.09,0.333 0.048,0.319 0.006,0.318 -0.039,0.319 -0.091,0.324 -0.133,0.33 -0.163,0.337 L -1.11,0.466 -1.153,0.143 -0.221,0.018 C -0.143,0.004 -0.072,0 0,0"
         style="fill:#191716;fill-opacity:1;fill-rule:nonzero;stroke:none"
         id="path98" />
    </g>
    <g
       id="g100"
       transform="matrix(2.2929909,0,0,-2.2929909,91.82577,74.687547)">
      <path
         d="M 0,0 1.17,-0.279 1.233,-0.014 0.243,0.227 1.371,0.57 1.443,0.859 -0.029,1.213 -0.09,0.945 0.815,0.728 -0.225,0.41 -0.302,0.073 -0.236,0.057 c 0,0 0.195,-0.045 0.236,-0.057"
         style="fill:#191716;fill-opacity:1;fill-rule:nonzero;stroke:none"
         id="path102" />
    </g>
    <g
       id="g104"
       transform="matrix(2.2929909,0,0,-2.2929909,95.612179,71.248057)">
      <path
         d="M 0,0 -1.444,0.451 -1.537,0.148 -0.094,-0.306 Z"
         style="fill:#191716;fill-opacity:1;fill-rule:nonzero;stroke:none"
         id="path106" />
    </g>
    <g
       id="g108"
       transform="matrix(2.2929909,0,0,-2.2929909,96.400511,69.20363)">
      <path
         d="m 0,0 -1.229,1.085 -0.095,-0.254 0.809,-0.717 -1.083,0.01 -0.125,-0.333 1.647,0.003 z"
         style="fill:#191716;fill-opacity:1;fill-rule:nonzero;stroke:none"
         id="path110" />
    </g>
    <g
       id="g112"
       transform="matrix(2.2929909,0,0,-2.2929909,97.822397,65.838215)">
      <path
         d="m 0,0 -0.211,0.098 -0.227,-0.491 -0.405,0.186 0.158,0.338 -0.204,0.094 -0.16,-0.336 -0.337,0.154 0.21,0.453 -0.217,0.102 -0.347,-0.75 1.374,-0.629 z"
         style="fill:#191716;fill-opacity:1;fill-rule:nonzero;stroke:none"
         id="path114" />
    </g>
    <g
       id="g116"
       transform="matrix(2.2929909,0,0,-2.2929909,96.754334,63.469097)">
      <path
         d="m 0,0 c -0.019,-0.037 -0.035,-0.068 -0.051,-0.098 l -0.348,0.196 0.04,0.064 c 0.014,0.031 0.036,0.061 0.056,0.088 0.019,0.02 0.04,0.035 0.066,0.047 0.018,0.01 0.043,0.017 0.066,0.017 0.027,0 0.057,-0.009 0.087,-0.029 C -0.035,0.26 0,0.23 0.014,0.201 0.027,0.17 0.033,0.137 0.032,0.107 0.027,0.068 0.017,0.035 0,0 M 0.735,-0.527 0.149,-0.207 0.935,-0.168 1.112,0.154 0.284,0.115 C 0.288,0.129 0.292,0.143 0.293,0.158 0.306,0.209 0.307,0.26 0.3,0.311 0.292,0.363 0.272,0.412 0.243,0.457 0.208,0.502 0.163,0.543 0.104,0.576 0.032,0.619 -0.04,0.641 -0.109,0.641 -0.174,0.641 -0.23,0.623 -0.284,0.594 -0.334,0.564 -0.38,0.525 -0.421,0.475 -0.458,0.426 -0.498,0.371 -0.529,0.314 l -0.223,-0.396 1.329,-0.729 z"
         style="fill:#191716;fill-opacity:1;fill-rule:nonzero;stroke:none"
         id="path118" />
    </g>
    <g
       id="g120"
       transform="matrix(2.2929909,0,0,-2.2929909,97.31404,61.471664)">
      <path
         d="m 0,0 c 0.07,-0.049 0.142,-0.07 0.207,-0.07 h 0.015 c 0.062,0.002 0.131,0.017 0.193,0.041 0.061,0.025 0.121,0.054 0.178,0.088 0.053,0.033 0.103,0.062 0.15,0.086 C 0.788,0.168 0.836,0.178 0.876,0.184 0.913,0.187 0.945,0.182 0.976,0.158 1.031,0.125 1.06,0.082 1.068,0.041 1.069,-0.01 1.054,-0.068 1.01,-0.127 0.997,-0.154 0.973,-0.18 0.95,-0.205 0.927,-0.225 0.905,-0.248 0.882,-0.268 0.859,-0.289 0.839,-0.307 0.814,-0.322 0.793,-0.338 0.772,-0.35 0.753,-0.359 l -0.089,-0.059 0.252,-0.168 0.037,0.035 c 0.009,0.004 0.023,0.016 0.044,0.037 0.013,0.018 0.034,0.037 0.057,0.061 0.019,0.021 0.042,0.053 0.064,0.082 0.028,0.029 0.049,0.059 0.07,0.09 0.041,0.058 0.071,0.121 0.098,0.185 0.022,0.067 0.036,0.135 0.036,0.201 0,0.065 -0.015,0.131 -0.048,0.19 C 1.243,0.355 1.192,0.408 1.122,0.455 1.054,0.504 0.976,0.527 0.898,0.527 0.828,0.527 0.762,0.514 0.696,0.488 0.633,0.463 0.57,0.432 0.514,0.393 0.458,0.361 0.407,0.33 0.354,0.305 0.308,0.283 0.265,0.27 0.223,0.258 0.193,0.254 0.166,0.262 0.134,0.281 0.099,0.303 0.081,0.332 0.078,0.369 0.075,0.41 0.089,0.457 0.121,0.508 0.142,0.535 0.163,0.559 0.182,0.58 0.203,0.604 0.226,0.625 0.251,0.643 0.272,0.664 0.292,0.678 0.312,0.689 L 0.451,0.787 0.198,0.949 0.159,0.914 C 0.134,0.893 0.101,0.859 0.066,0.816 0.028,0.775 -0.016,0.723 -0.054,0.664 -0.14,0.535 -0.179,0.412 -0.174,0.297 -0.171,0.174 -0.112,0.072 0,0"
         style="fill:#191716;fill-opacity:1;fill-rule:nonzero;stroke:none"
         id="path122" />
    </g>
    <g
       id="g124"
       transform="matrix(2.2929909,0,0,-2.2929909,101.52168,59.962418)">
      <path
         d="M 0,0 -1.202,0.913 -1.393,0.66 -0.19,-0.25 Z"
         style="fill:#191716;fill-opacity:1;fill-rule:nonzero;stroke:none"
         id="path126" />
    </g>
    <g
       id="g128"
       transform="matrix(2.2929909,0,0,-2.2929909,100.42448,56.677263)">
      <path
         d="M 0,0 C 0.055,0.065 0.109,0.104 0.166,0.124 0.218,0.144 0.267,0.152 0.321,0.144 0.373,0.139 0.43,0.115 0.483,0.081 0.546,0.047 0.606,-0.004 0.672,-0.059 0.815,-0.188 0.894,-0.309 0.907,-0.414 0.92,-0.52 0.874,-0.622 0.775,-0.735 L 0.75,-0.763 -0.049,-0.054 Z m 0.894,-0.933 c 0.077,0.084 0.142,0.17 0.198,0.25 0.055,0.091 0.094,0.184 0.107,0.275 0.014,0.097 -0.006,0.199 -0.052,0.299 C 1.105,-0.012 1.022,0.09 0.904,0.2 0.781,0.307 0.672,0.377 0.568,0.41 0.465,0.445 0.363,0.455 0.27,0.434 0.178,0.413 0.088,0.367 0.005,0.301 -0.07,0.238 -0.147,0.166 -0.227,0.081 L -0.43,-0.142 0.698,-1.151 Z"
         style="fill:#191716;fill-opacity:1;fill-rule:nonzero;stroke:none"
         id="path130" />
    </g>
    <g
       id="g132"
       transform="matrix(2.2929909,0,0,-2.2929909,103.43404,54.541096)">
      <path
         d="M 0,0 0.336,-0.179 0.132,-0.354 Z m 0.387,-1.023 -0.177,0.449 0.329,0.279 0.43,-0.226 0.272,0.232 -1.445,0.748 -0.183,-0.154 0.557,-1.513 z"
         style="fill:#191716;fill-opacity:1;fill-rule:nonzero;stroke:none"
         id="path134" />
    </g>
    <g
       id="g136"
       transform="matrix(2.2929909,0,0,-2.2929909,105.7158,52.069036)">
      <path
         d="m 0,0 c 0.065,0.044 0.132,0.068 0.188,0.073 0.058,0.009 0.108,0 0.157,-0.02 0.049,-0.022 0.097,-0.057 0.144,-0.108 0.049,-0.049 0.094,-0.113 0.137,-0.179 0.107,-0.162 0.15,-0.302 0.132,-0.408 -0.012,-0.102 -0.084,-0.193 -0.21,-0.274 l -0.037,-0.023 -0.574,0.9 z m 0.607,-1.138 c 0.099,0.06 0.184,0.128 0.255,0.189 0.078,0.072 0.141,0.15 0.181,0.238 0.038,0.088 0.049,0.189 0.03,0.297 C 1.057,-0.307 1.006,-0.186 0.92,-0.049 0.83,0.086 0.746,0.182 0.658,0.244 0.565,0.307 0.47,0.34 0.377,0.345 0.282,0.35 0.182,0.329 0.083,0.286 -0.006,0.248 -0.102,0.197 -0.197,0.139 l -0.256,-0.166 0.814,-1.268 z"
         style="fill:#191716;fill-opacity:1;fill-rule:nonzero;stroke:none"
         id="path138" />
    </g>
    <g
       id="g140"
       transform="matrix(2.2929909,0,0,-2.2929909,128.56293,71.886432)">
      <path
         d="M 0,0 C 0.084,-0.01 0.133,-0.144 0.463,-0.148 0.71,-0.153 0.74,0.004 0.775,0.013 0.793,0.015 0.811,0.018 0.82,0.04 0.807,0.063 0.662,0.119 0.458,0.126 0.191,0.137 -0.036,0.052 -0.062,0.028 -0.044,0.015 -0.031,0.005 0,0"
         style="fill:#191716;fill-opacity:1;fill-rule:nonzero;stroke:none"
         id="path142" />
    </g>
    <g
       id="g144"
       transform="matrix(2.2929909,0,0,-2.2929909,127.11169,68.791575)">
      <path
         d="m 0,0 c 0.056,0.01 0.114,0.03 0.171,0.036 0.073,0.006 0.133,0.002 0.194,-0.045 0.02,-0.015 0.065,-0.097 0.178,-0.096 0.056,-0.001 0.124,0.022 0.15,0.089 C 0.726,0.009 0.806,-0.044 0.828,-0.024 0.877,-0.016 0.9,0.027 0.921,0.057 0.944,0.093 0.979,0.144 0.941,0.181 0.381,0.491 -0.061,0.022 -0.061,0.022 -0.078,-0.021 -0.055,-0.016 0,0"
         style="fill:#191716;fill-opacity:1;fill-rule:nonzero;stroke:none"
         id="path146" />
    </g>
    <g
       id="g148"
       transform="matrix(2.2929909,0,0,-2.2929909,139.77243,95.673915)">
      <path
         d="M 0,0 C -0.018,-0.044 0.008,-0.032 0.064,-0.015 0.117,0.003 0.285,0.034 0.381,0.011 0.43,0 0.474,-0.102 0.616,-0.085 0.669,-0.082 0.74,-0.01 0.766,0.051 0.805,0.087 0.943,0.13 0.961,0.134 1.008,0.144 1.019,0.216 0.953,0.251 0.364,0.485 0,0 0,0"
         style="fill:#191716;fill-opacity:1;fill-rule:nonzero;stroke:none"
         id="path150" />
    </g>
    <g
       id="g152"
       transform="matrix(2.2929909,0,0,-2.2929909,108.49468,96.329948)">
      <path
         d="m 0,0 c -0.043,-0.071 -0.069,-0.152 -0.069,-0.201 0.004,-0.045 0.076,-0.029 0.095,-0.021 0.02,0.017 0.034,0.027 0.047,0.032 0.022,0.006 0.043,0.006 0.043,0.006 0,0 0.008,-0.033 0.034,-0.043 0.026,-0.011 0.052,-0.009 0.052,-0.009 0,0 0.042,-0.002 0.071,0.014 0.019,0.015 0.046,0.047 0.055,0.103 0.005,0.06 0.061,0.07 0.104,0.129 0.05,0.071 0.113,0.204 0.09,0.207 C 0.282,0.254 0.124,0.185 0,0"
         style="fill:#191716;fill-opacity:1;fill-rule:nonzero;stroke:none"
         id="path154" />
    </g>
    <g
       id="g156"
       transform="matrix(2.2929909,0,0,-2.2929909,141.69144,98.477338)">
      <path
         d="M 0,0 C 0.08,-0.008 0.136,-0.133 0.441,-0.119 0.675,-0.113 0.702,0.033 0.731,0.043 0.746,0.047 0.763,0.051 0.773,0.071 0.76,0.093 0.62,0.142 0.428,0.138 0.176,0.136 -0.038,0.047 -0.061,0.023 -0.046,0.016 -0.028,0.002 0,0"
         style="fill:#191716;fill-opacity:1;fill-rule:nonzero;stroke:none"
         id="path158" />
    </g>
    <path
       d="m 170.46366,109.61989 c -1.26344,6.04662 -3.9921,14.87693 -9.8782,22.57908 -7.94065,10.39643 -19.17399,15.66801 -33.41117,15.66801 h -0.0228 c -14.99615,-0.009 -26.65601,-5.27158 -34.644793,-15.64736 -5.785214,-7.50726 -8.328145,-16.08304 -9.456291,-21.95081 -1.082292,-5.67285 -1.210701,-10.914628 -0.7865,-13.868002 0.02535,-0.185761 0.183424,-0.520505 0.669555,-0.401299 1.008913,0.240754 2.455792,0.623723 3.872863,0.974518 -0.05979,0.153657 -0.09861,0.334807 -0.08943,0.534286 0.0299,0.848408 0.488395,1.747261 0.86675,2.432861 -0.158204,0 -0.678724,0.04094 -1.118977,0.355406 -0.651209,0.47469 -0.566392,1.26115 -0.527394,1.52255 0.139868,1.32077 1.311592,2.293 2.171459,2.99923 0.103217,0.0711 0.208643,0.14905 0.28664,0.22931 -0.240751,0.18804 -0.64894,0.62139 -0.676429,0.96307 -0.02535,0.42879 0.752102,1.31617 1.630319,2.19898 -0.738341,0.13298 -1.297833,0.77502 -1.297833,1.54547 0,0.58472 0.327915,1.09376 0.793374,1.37121 -0.325574,0.34162 -0.389793,0.74522 -0.19258,1.22675 0.321026,0.78649 1.084584,1.46751 1.678465,1.97886 -0.252256,0.094 -0.662674,0.33018 -0.921783,0.72687 -0.442572,0.67872 -0.07793,1.3758 0.04356,1.60968 0.609944,1.19236 2.049938,1.68075 3.107003,2.02012 0.119216,0.0462 0.245369,0.0895 0.350796,0.1261 -0.08028,0.14216 -0.165088,0.3348 -0.16972,0.35313 -0.09633,0.21554 -0.190307,0.55035 -0.123826,0.7888 0.121552,0.38979 1.080003,0.92178 2.153123,1.4056 -0.293467,0.28664 -0.470068,0.6856 -0.470068,1.12357 0,0.85069 0.687896,1.55464 1.545476,1.58215 -0.06435,0.32558 0.03898,0.65351 0.321025,0.9539 0.575559,0.62599 1.540891,1.00662 2.274643,1.28407 -0.21781,0.18803 -0.520507,0.56866 -0.619108,0.99056 -0.183424,0.79338 0.401298,1.32307 0.586999,1.50192 0.830065,0.7521 2.024712,0.85987 2.974012,0.85987 0.22015,0 0.44257,-0.0136 0.65808,-0.0228 0.12156,0 0.25454,0 0.36685,-0.002 0,0.0273 -0.005,0.0598 -0.0208,0.094 -0.0227,0.22242 -0.0756,0.79109 0.14677,1.0777 0.26598,0.35542 1.53172,0.53429 2.83873,0.6145 -0.14678,0.24536 -0.23387,0.51362 -0.23387,0.82777 0,0.86446 0.71771,1.57758 1.59134,1.57758 0.11695,0 0.22015,-0.0117 0.31876,-0.0364 -0.0848,0.52512 0.11464,0.9149 0.62365,1.18319 0.74752,0.38979 1.77707,0.43796 2.56357,0.45173 -0.14444,0.25908 -0.29808,0.71313 -0.24537,1.1419 0.0964,0.80256 0.82089,1.1144 1.06395,1.22218 0.33935,0.14904 0.72687,0.22469 1.1442,0.22469 0.89656,0 1.81834,-0.35086 2.54981,-0.63289 0.12843,-0.0436 0.24303,-0.094 0.35086,-0.12382 0,0.0208 0,0.0344 0.0161,0.0711 0.0462,0.22931 0.18577,0.7842 0.48613,0.99058 0.12383,0.0711 0.30269,0.10321 0.57094,0.10321 1.16713,0 3.6298,-0.70624 4.79922,-1.06166 0.18577,1.30013 0.69708,2.47414 1.62344,3.05197 0.54118,0.34853 7.71362,0.31642 8.25018,0.0254 0.27516,-0.14214 0.5159,-0.36229 0.72688,-0.63516 l 0.0212,-0.0136 c 0.44257,-0.58701 0.76586,-1.39873 0.92178,-2.28611 1.21528,0.36685 3.57249,1.04101 4.6777,1.04101 0.26597,0 0.45629,-0.039 0.57094,-0.11465 0.30726,-0.19721 0.44485,-0.7475 0.49301,-0.96993 0,-0.0363 0.0128,-0.0687 0.0128,-0.0895 0.11686,0.0409 0.22932,0.0826 0.35539,0.12383 0.73377,0.28664 1.64181,0.63289 2.55672,0.63289 0.40583,0 0.79565,-0.0803 1.13961,-0.22015 0.24075,-0.11232 0.97222,-0.41963 1.05707,-1.21759 0.0508,-0.4334 -0.0918,-0.89197 -0.24538,-1.15107 0.78649,-0.0136 1.81834,-0.0553 2.56587,-0.45174 0.55488,-0.28891 0.75209,-0.72687 0.59159,-1.3368 0.16042,0.0507 0.31414,0.0779 0.48613,0.0779 0.86446,0 1.58216,-0.71312 1.58216,-1.573 0,-0.31874 -0.0871,-0.60077 -0.23847,-0.83923 1.23363,-0.0964 2.36408,-0.27287 2.62776,-0.60767 0.22016,-0.28664 0.1721,-0.85528 0.13066,-1.09146 0,-0.0319 0,-0.0552 -0.0127,-0.0802 0.12387,0.002 0.24765,0.002 0.37373,0.002 0.21555,0.009 0.43795,0.0228 0.6558,0.0228 0.9539,0 2.14625,-0.10777 2.97402,-0.85987 0.1925,-0.17889 0.76586,-0.70854 0.58925,-1.50192 -0.0986,-0.4219 -0.38751,-0.80254 -0.6191,-0.99057 0.73834,-0.27747 1.68765,-0.65809 2.26547,-1.28407 0.2981,-0.30953 0.40586,-0.64433 0.32103,-0.99058 0.71313,-0.16508 1.2451,-0.78879 1.2451,-1.54547 0,-0.38979 -0.1398,-0.74751 -0.37834,-1.02038 1.16483,-0.51589 2.23338,-1.09375 2.37095,-1.50879 0.0665,-0.23848 -0.0274,-0.57329 -0.12387,-0.78879 -0.0128,-0.0183 -0.0918,-0.21092 -0.17422,-0.35314 0.11473,-0.0363 0.23849,-0.0802 0.35769,-0.12609 1.05248,-0.33937 2.49936,-0.82778 3.10699,-2.02014 0.12154,-0.23386 0.47925,-0.93095 0.0436,-1.60967 -0.26369,-0.39669 -0.67414,-0.6329 -0.92865,-0.72688 0.59161,-0.51134 1.35287,-1.19236 1.68533,-1.97885 0.17657,-0.44946 0.14683,-0.83465 -0.13533,-1.15796 0.55033,-0.24537 0.93324,-0.79108 0.93324,-1.44 0,-0.82777 -0.65122,-1.51109 -1.4744,-1.56841 0.87592,-0.87363 1.63262,-1.75184 1.60052,-2.17605 -0.0272,-0.34163 -0.4288,-0.77503 -0.67873,-0.96306 0.0895,-0.0802 0.1925,-0.1582 0.28203,-0.22931 0.87592,-0.70623 2.04763,-1.67847 2.19209,-2.99923 0.03,-0.26142 0.11006,-1.04789 -0.53656,-1.52254 -0.43796,-0.314142 -0.95388,-0.355416 -1.12128,-0.355416 0.37375,-0.685605 0.84841,-1.584459 0.87821,-2.432866 0,-0.162814 -0.0227,-0.307247 -0.0572,-0.440233 0.22243,-0.07339 0.44023,-0.142141 0.60768,-0.192581 1.29095,-0.401299 2.5842,-0.804841 3.55185,-1.105217 0.52277,-0.174266 0.89425,0.15132 0.92865,0.398959 0.24993,2.540629 0.13067,7.351324 -1.13502,13.450684 m -29.40088,40.8814 c -0.52965,0.0527 -1.19693,0.11922 -1.9238,0.22242 -0.37837,-0.70854 -0.80256,-1.57758 -1.19008,-2.48101 0.53196,-0.11695 1.05021,-0.23848 1.573,-0.37147 0.51824,1.15338 1.09834,2.18981 1.54088,2.63007 m -4.7717,0.71082 c -0.44939,-0.72688 -0.82318,-1.58675 -1.12586,-2.46267 0.60307,-0.0964 1.21299,-0.19722 1.79541,-0.30959 0.33936,1.01579 0.70624,1.92153 1.02496,2.46267 -0.55721,0.094 -1.12813,0.20176 -1.69451,0.30959 m -2.87607,0.70623 c -0.42881,-0.63516 -0.87593,-1.68306 -1.19696,-2.81121 0.6145,-0.0598 1.21759,-0.12155 1.82063,-0.20636 0.30498,1.08228 0.66728,2.03846 1.04103,2.56585 -0.60079,0.14677 -1.1786,0.28663 -1.6647,0.45174 m -13.29936,0 c -0.49067,-0.16509 -1.06853,-0.30498 -1.67617,-0.45174 0.38752,-0.53657 0.76815,-1.51567 1.06853,-2.62089 0.59617,0.0802 1.19694,0.15593 1.80917,0.21325 -0.32103,1.10293 -0.77044,2.21504 -1.20153,2.85937 m -2.88,-0.70625 c -0.56638,-0.10776 -1.1442,-0.21553 -1.70369,-0.30959 0.31414,-0.5595 0.67872,-1.49503 1.04561,-2.52228 0.59161,0.10776 1.19006,0.20637 1.79082,0.30725 -0.30496,0.89426 -0.68102,1.77707 -1.13274,2.52458 m -4.78088,-0.71079 c 0.44712,-0.44258 1.01121,-1.51567 1.56152,-2.67593 0.52051,0.1261 1.04561,0.2431 1.57758,0.35769 -0.40129,0.91949 -0.82089,1.81375 -1.21299,2.54062 -0.72458,-0.10321 -1.38497,-0.16972 -1.92611,-0.22242 m -24.392686,-49.3109 c 0.107764,0 0.213261,0.009 0.330192,0.0183 0.256808,0.0227 0.463176,0.0227 0.586998,-0.0462 0.552614,-0.32102 0.137594,-1.1419 -0.286642,-1.969672 -0.01169,-0.02731 -0.01827,-0.05265 -0.0364,-0.08028 -0.304972,-0.577834 -0.630548,-1.217579 -0.472342,-1.439996 0.07567,-0.09406 0.167361,-0.139867 0.307246,-0.139867 0.165087,0 0.385244,0.07793 0.603054,0.144435 0.224697,0.08715 0.458626,0.169719 0.681018,0.169719 0.153657,0 0.284302,-0.03898 0.385243,-0.1261 0.295808,-0.227038 0.263698,-0.89427 0.208643,-1.55694 -0.01169,-0.121553 -0.01615,-0.229312 -0.01615,-0.291191 -0.0072,-0.277477 0.03639,-0.914908 0.490734,-1.029558 l 0.174266,-0.0136 c 0.311861,0.03445 0.513616,0.330193 0.648941,0.926374 0.02082,0.06174 0.0299,0.15132 0.04811,0.252194 0.107763,0.678724 0.240753,1.345981 0.573219,1.522541 0.07565,0.04356 0.169719,0.06174 0.268246,0.06174 0.256808,0 0.499903,-0.151319 0.747513,-0.300357 0.316412,-0.192581 0.609942,-0.348519 0.816305,-0.15593 0.208644,0.183423 -0.01615,0.88051 -0.199485,1.506494 -0.279753,0.903442 -0.566395,1.852744 0.05719,2.063694 0.132984,0.0552 0.355411,0 0.584725,-0.0572 0.18115,-0.0507 0.369188,-0.10315 0.538834,-0.10315 0.222423,0 0.373741,0.0986 0.472342,0.31414 0.213259,0.49983 -0.0072,0.85528 -0.265973,1.2749 -0.1261,0.20637 -0.341631,0.4494 -0.564053,0.70854 -0.577834,0.6535 -1.222161,1.39643 -0.921778,1.97427 0.135256,0.24302 0.334804,0.34162 0.511339,0.41735 0.190307,0.0895 0.332466,0.15593 0.396684,0.36691 0.05069,0.13526 -0.08027,0.626 -1.222165,2.48102 -0.302698,-0.40351 -0.665004,-0.73371 -1.08003,-0.92175 -0.531945,-2.75388 -0.976818,-5.71871 -0.928663,-7.22521 -0.0481,-0.568671 -0.421902,-0.474618 -0.479231,0.15366 -0.286641,1.52255 -0.144414,4.3177 0.272864,6.97298 -0.08027,0.0344 -0.15593,0.0572 -0.240754,0.11238 l -0.03445,0.009 c -0.284366,0.12843 -0.493009,0.32557 -0.648941,0.57321 -0.667271,-0.72685 -1.274914,-1.43768 -1.251983,-1.63946 0.03445,-0.22931 0.160478,-0.31875 0.332466,-0.44023 0.165087,-0.10777 0.343971,-0.23621 0.428794,-0.50445 0.192581,-0.62373 -0.580109,-1.23822 -1.263441,-1.77019 -0.270587,-0.22016 -0.52278,-0.42191 -0.6856,-0.60534 -0.382906,-0.41046 -0.607669,-0.69706 -0.493013,-1.19922 0.06435,-0.29581 0.254535,-0.40819 0.625998,-0.40819 m 0.490672,-20.877622 c -0.71541,-11.253998 6.725347,-26.8922 18.889664,-32.207353 0.63289,0.846112 1.54777,2.043054 2.43516,3.201015 0.63516,0.843819 1.30242,1.705987 1.85044,2.432863 -6.05808,2.664456 -13.122791,12.599986 -15.220878,22.803794 l -0.268314,1.478982 c -0.181149,1.135031 -0.288917,2.272356 -0.33474,3.400503 -1.155668,-0.1261 -3.090956,-0.385245 -4.884074,-0.667257 l -1.508899,-0.254713 c -0.334741,-0.06435 -0.658088,-0.1261 -0.95847,-0.188034 M 126.27289,45.209576 c 7.50266,0 12.92787,2.442033 16.34215,4.682288 -0.13768,0.174266 -0.26824,0.348519 -0.39668,0.52512 -0.90573,1.171721 -1.82293,2.387005 -2.45122,3.228529 -0.14214,0.183423 -0.19037,0.428793 -0.11239,0.658093 0.0527,0.183424 0.49067,0.887389 0.67643,1.118977 0.63288,0.795668 1.81834,1.689932 1.33909,2.428279 -0.133,0.20176 -0.32101,0.307248 -0.53195,0.332466 -1.74725,-1.655543 -7.05095,-5.452736 -14.38392,-5.452736 -6.50751,0 -11.27923,2.999232 -13.54699,4.751082 -0.37147,0.249918 -0.62139,0.479229 -0.62139,0.479229 -0.0964,0 -0.48384,-0.288916 -0.43107,-0.674141 0.0436,-0.3623 0.40358,-0.609941 0.64206,-0.864455 0.18575,-0.204096 0.38062,-0.403573 0.53194,-0.609944 0.47234,-0.591612 0.60532,-1.60739 0.17887,-2.166876 -0.63743,-0.836942 -1.56152,-2.056807 -2.45349,-3.228531 -0.20176,-0.268247 -0.41274,-0.541175 -0.61683,-0.811716 3.30419,-2.137069 8.52305,-4.395664 15.83539,-4.395664 m 19.55005,2.896045 c 12.15972,5.315154 19.60047,20.953357 18.88277,32.207355 -0.30951,0.06174 -0.64432,0.128437 -0.99974,0.192581 l -0.75441,0.123826 -0.74751,0.135257 c -1.77935,0.277479 -3.70088,0.532011 -4.84279,0.658088 -0.0344,-1.128154 -0.15361,-2.265472 -0.33247,-3.407384 l -0.13981,-0.738347 -0.12599,-0.738341 c -2.10955,-10.208399 -9.16736,-20.134757 -15.22544,-22.799213 0.54572,-0.726874 1.2038,-1.589042 1.85042,-2.432863 0.8874,-1.157962 1.79542,-2.354903 2.43516,-3.201017 m -28.74737,24.259852 c 0.21098,-0.06435 0.42417,0.10549 0.46545,0.293532 0,0.121553 -0.10315,0.284302 -0.11465,0.415014 -0.005,0.14214 0.0734,0.265971 0.0553,0.408123 -0.0183,0.144414 -0.1536,0.341631 -0.18116,0.470066 -0.0848,0.321025 -0.0848,0.54345 -0.22469,0.651211 -0.22243,0.185697 -1.61885,1.052483 -2.5521,1.265735 -0.16971,0.04614 -0.33935,1.795412 -0.34851,1.962796 -0.0572,0.804838 -0.0183,1.621145 -0.0665,2.435155 -0.0803,1.047902 -0.0299,2.231082 -0.22704,3.256052 -0.13986,0.820886 -1.39185,1.401014 -2.20586,1.401014 -0.47923,0 0.34852,-4.06547 0.40357,-4.375025 0.4013,-1.898597 0.75898,-3.75592 1.63032,-5.521524 0.65806,-1.332223 1.89168,-2.30674 3.36608,-2.662156 m 0.23386,-6.528143 c 0.009,0.233864 -0.86675,1.027258 -0.86675,1.027258 0,0 0.14678,4.732738 0.0917,4.718978 -0.28202,0.06174 -0.79795,0.229312 -1.03872,0.380628 0,0.02082 0.13071,-5.074388 0.13071,-5.074388 0,0 -0.73376,-0.733758 -0.74751,-0.983693 -0.002,-0.243093 0.99057,-3.92331 1.21299,-3.92331 0.22931,0 1.21528,3.613755 1.21758,3.85452 m 3.51744,32.993846 c 0,0 1.84356,-0.348521 3.07949,-1.194647 0.79108,-0.53656 2.2884,-1.825222 3.04279,-4.065474 0.25226,-0.729168 -0.12153,-1.290954 -0.61448,-0.456287 -1.26343,2.063691 -3.79032,4.606623 -6.28737,4.4163 -0.68791,-0.05979 -1.19695,-0.609942 -1.46065,-0.990571 3.77655,-1.799996 7.09451,-5.289927 10.02725,-9.263683 l -0.25681,8.93808 c -0.3944,0.729171 -0.85299,1.531715 -1.29554,2.116433 -1.35287,1.767895 -3.21477,3.017575 -4.54928,2.063695 -0.85988,-0.609947 -1.68536,-1.563827 -1.68536,-1.563827 m -8.24101,-2.836431 c -0.22704,0.08943 -0.0552,0.330193 -0.13526,1.20382 -0.0917,0.908023 -0.34162,1.623439 -0.94471,1.829808 -0.31875,0.09861 -0.43569,-0.224699 -0.626,-0.366849 -0.0917,-0.06435 -0.19721,0.02082 -0.28203,-0.0047 -0.0826,-0.04161 -0.0507,-0.192582 -0.11237,-0.229313 -0.0802,-0.03898 -0.24075,0.0364 -0.28664,0.02276 -0.0364,-0.0091 -0.0871,-0.06174 -0.094,-0.116922 -0.0254,-0.10549 -0.0895,-0.302696 -0.15359,-0.284303 -0.0711,0.07112 -0.15821,0.149047 -0.20637,0.178877 -0.11921,0.094 -0.17426,0.119216 -0.27515,0.116942 -0.11921,-0.02276 -0.13986,-0.10088 -0.24991,-0.224699 -0.16509,-0.199486 -0.39668,-0.518231 -0.5205,-0.708532 -0.11465,-0.165087 -0.27287,-0.419628 -0.49302,-0.458562 -0.35541,-0.07339 -1.07999,-0.566395 -1.27032,-1.515667 -0.0183,-0.08943 -0.0416,-0.199486 -0.0552,-0.376079 -0.0665,-0.719997 0.0826,-1.410187 0.35079,-1.325353 0.0298,0.0047 0.0409,0.02731 0.0507,0.04615 h 0.009 v 0.0091 c 0.0208,0.05524 0.0136,0.151319 0.002,0.270586 0.0117,0.35541 0.0183,0.589273 0.13526,0.710832 0.14443,0.160477 0.44023,0.169719 0.57556,0.146773 0.59616,-0.08943 1.22216,0.0136 1.88943,0.08945 0.40357,0.07339 0.6856,-0.06435 0.84611,-0.318751 0.15132,-0.277478 0.44257,-0.545725 0.75898,-0.60533 0.95159,-0.06877 1.59133,0.678725 2.29757,1.210695 0.94475,0.713076 3.01991,2.286071 3.01991,2.286071 -0.61912,0.797964 -1.82522,1.550064 -2.82039,1.921529 -0.40357,-0.811724 -0.70395,-1.015798 -0.90572,-1.171724 0.0617,-0.440231 0.17653,-2.35719 -0.50445,-2.336553 m -8.38547,9.607622 c 0.3554,-0.37607 0.76815,-0.62598 1.15107,-0.78419 0.44713,-0.15132 0.70625,-0.2316 1.16714,-0.30036 0.97681,0.36919 1.65096,0.59617 2.62318,0.97681 -0.18342,0.39441 -0.3027,0.73146 -0.40812,0.9493 -1.53416,-0.33486 -2.83887,-0.54123 -4.53339,-0.84158 m -0.44023,4.20992 c -0.73604,-0.31413 -1.37808,-0.59161 -2.11871,-0.89196 -0.89198,-0.38525 -1.91236,-0.77044 -2.797454,-1.17631 0.206369,-0.21553 0.252258,-0.38524 0.885094,-0.44484 0.153592,0.16737 1.20152,0.83923 2.03846,0.77503 1.08459,-0.0711 3.23083,1.16942 3.91644,1.47209 1.06395,0.47696 2.23108,1.00434 3.27897,1.66243 -0.6191,0.5595 -1.03185,1.55235 -1.03185,1.55235 0,0 -3.21247,-0.9493 -5.04916,-1.42166 -1.55694,-0.39441 -2.84331,-0.7521 -4.10216,-1.01579 -0.06651,-0.19949 -0.268247,-1.61198 -0.1261,-1.58675 0.454012,0.094 3.21018,1.03872 3.21018,1.03872 0,0 1.32077,0.46318 1.74038,0.60995 0.71543,0.26369 1.03414,-0.20638 0.15593,-0.57322 m 13.55847,9.57094 c 0.0461,1.43313 -1.74268,2.0637 -1.74268,2.0637 -0.0436,0.96305 0.0507,1.97197 0.25226,2.99235 -1.18318,-0.39896 -3.91185,-1.67159 -6.28738,-5.36559 -0.28203,-0.44258 -0.6145,-0.48385 -0.64433,0 0.23158,2.11871 2.27006,4.61349 2.18751,4.65705 -0.38979,0.16276 -2.34114,-0.8599 -3.15286,-1.66933 -1.13045,-1.12815 -1.57758,-1.8688 -2.60714,-3.77197 -0.31641,-0.59616 -0.65808,-0.61222 -0.64659,-0.17888 0.0228,0.44258 0.18576,1.82752 -1.02955,2.69198 -0.3027,-0.7131 -0.70854,-1.58214 -1.32766,-2.11413 -0.53428,-0.44711 -1.04559,-0.42417 -1.62343,0.0572 -0.29353,0.2568 -0.50906,0.73146 -0.64894,1.04559 -0.0136,0.0436 -0.0461,0.10084 -0.06174,0.14677 -0.04614,-0.0481 -0.09861,-0.0986 -0.160478,-0.14677 0.357688,-1.41707 0.660378,-3.0428 0.353138,-3.48993 -0.206374,-0.30497 -0.804842,-0.42879 -1.070834,-0.47007 0.02535,-0.11464 0.07339,-0.23386 0.121552,-0.35313 0.07567,-0.22014 0.160477,-0.47007 0.240754,-0.7154 0.529669,-1.17631 1.263448,-2.01784 2.510818,-1.93758 1.85504,0.1123 3.75363,0.75439 4.11593,0.80484 3.82012,1.05706 5.42751,1.81376 5.75311,1.84814 0.44712,0.0572 0.41735,-0.26142 0.27748,-0.73146 -0.18116,-0.60994 -0.41275,-1.22216 0.0986,-2.54292 0.21326,-0.55034 0.60995,-1.38726 0.95847,-2.08203 0.80255,-1.39414 1.65554,-3.22166 2.18293,-4.18701 0.39668,-0.82089 0.45629,-1.35745 0.0895,-1.52713 -0.45401,-0.14444 -1.00892,0.88509 -1.34828,1.54776 -0.63516,1.13046 -1.44687,2.97172 -2.54751,4.18472 -0.4494,0.45628 -0.59617,0.3944 -1.17402,0.26369 -2.35261,-0.6535 -7.34215,-3.28815 -8.14011,-3.2377 -0.84841,0.0299 -1.71287,-0.21553 -2.368659,-0.76586 -0.103153,0.21325 -0.440233,0.24536 -0.495285,0.10776 0.05524,-0.18803 0.05524,-0.46317 0.217809,-0.56639 0.174266,-0.22242 0.653495,-0.45628 1.109805,-0.60306 0.93095,-0.0644 1.4079,0.41502 2.51083,0.99288 1.21069,0.16737 4.50114,0.72229 6.75973,1.42164 0.63971,0.12845 0.77503,-0.32329 0.26825,-0.62365 l -0.41501,-0.25895 c 0.69936,-2.00178 1.40561,-3.5037 2.56815,-5.29452 0.78191,-1.19006 1.62114,-0.85529 2.92356,-1.50879 1.13733,-0.456286 1.72891,-1.203817 2.5842,-1.86878 2.66904,2.36178 3.45095,6.10623 3.95081,8.05756 -3.41883,2.42369 -6.07412,6.97298 -6.13603,11.20356 0,0.0461 1.54777,0.25225 1.59363,1.92381 M 139.2216,82.291817 c 0.95848,4.73273 1.2474,6.931709 1.2474,6.931709 0,0 -0.60307,0 -1.04103,0.09406 -0.0597,0.06174 -0.55034,-3.806365 -1.26115,-6.649677 -1.49261,-5.947904 -2.41669,-7.183825 -3.85439,-7.426886 -0.60533,-0.110037 -0.8507,0.201759 -0.95847,0.243029 -0.0848,-0.09861 -0.30498,-0.217809 -0.38063,-0.295808 0,0 0.27748,-2.068274 1.70368,-2.031587 1.69911,0.03899 3.45095,3.636686 4.54471,9.135277 m 5.78982,25.486596 c 0.12387,0.21099 0.26597,0.43108 0.39895,0.62828 -1.16025,0.17887 -2.06141,0.009 -2.66905,-0.18803 -0.22931,-0.60079 -0.35768,-1.22676 -0.38291,-1.84128 0.30959,0.14677 1.04333,0.49301 2.17377,0.44257 0.0827,0.18343 0.18123,0.37601 0.27059,0.56867 0.0618,0.13987 0.12833,0.26597 0.20865,0.38979 m -0.7246,2.63466 c -0.42418,-0.37148 -0.80483,-0.8209 -1.1144,-1.33452 -0.0212,-0.0273 -0.0319,-0.0598 -0.0572,-0.0986 0.63978,0.27748 1.67618,0.56867 3.05198,0.36231 0.38979,0.44484 0.81629,0.8484 1.22674,1.19235 -1.46064,0.34163 -2.52915,0.10322 -3.10701,-0.12155 m 4.11364,0.87363 c 0.2522,0.18115 0.49301,0.32558 0.71083,0.45401 -0.34163,0.0299 -0.66725,0.0617 -0.99287,0.10316 -0.74064,0 -1.48128,-0.13987 -2.16457,-0.41047 0.65578,0.10776 1.46751,0.11237 2.44661,-0.14677 m 3.25604,-0.66726 c -0.19717,0.13759 -0.3944,0.28663 -0.60531,0.40584 -0.30959,0.18343 -0.64207,0.33708 -0.97224,0.46545 -0.18803,-0.13759 -0.43107,-0.31186 -0.71542,-0.53194 0.41501,-0.17887 0.85529,-0.40812 1.31618,-0.68102 0.31186,-0.19258 0.58927,-0.39214 0.84611,-0.58244 0.0688,0.39895 0.10325,0.7177 0.13066,0.92407 m 0.46544,-2.81351 c -0.0128,-0.0802 -0.0364,-0.16971 -0.0552,-0.25452 -0.0319,-0.16282 -0.0319,-0.0848 -0.0553,-0.25227 -0.0599,-0.30035 -0.22697,-0.23619 -0.5274,0.0895 -0.19038,0.18342 -0.36458,0.46545 -0.31875,0.65579 0.0364,0.1651 0,0.0299 0.0364,0.18343 0.0299,0.11922 0.0599,0.23159 0.0918,0.35769 -0.33481,0.26369 -0.70854,0.5205 -1.1488,0.78649 -0.60077,0.36002 -1.15338,0.62826 -1.66929,0.82777 -0.36457,-0.33936 -0.7475,-0.71083 -1.11669,-1.13962 0.64206,-0.21093 1.34828,-0.53884 2.09581,-0.99974 2.75158,-1.69223 3.37985,-3.81555 3.50138,-4.93452 0.0128,0.0227 0.0364,0.0527 0.0572,0.0802 0.21327,0.37146 0.4013,0.7521 0.52049,1.14191 -0.0299,0.44023 0.0618,1.87338 -1.41247,3.45783 m 0.16741,1.19923 c 0.97224,-0.99745 1.3758,-2.027 1.53403,-2.78368 -0.0191,1.38725 -0.54119,2.73782 -1.5088,3.77884 0.017,-0.26832 0.008,-0.60078 -0.0253,-0.99516 m -1.58389,-4.87241 c -0.10094,-0.16048 -0.14447,-0.25454 -0.25452,-0.40585 -1.45377,-2.03388 -3.02906,-2.79515 -3.89352,-3.07719 2.10727,-0.587 4.40943,0.0848 5.87924,1.75644 -0.17189,1.13731 -0.80255,2.99922 -3.57019,4.67082 -0.80943,0.49528 -1.56152,0.82776 -2.24941,1.05248 -0.11686,-0.16281 -0.22932,-0.32792 -0.33936,-0.49757 -0.1398,-0.22931 -0.28203,-0.45628 -0.41273,-0.69936 -0.0553,-0.10322 -0.0986,-0.18804 -0.15128,-0.28664 0.69477,-0.17887 1.46751,-0.49301 2.35032,-1.01579 0.23847,-0.13532 0.23847,-0.13532 0.45627,-0.2637 0.3967,-0.23386 -0.24302,-1.27719 -0.65578,-1.06165 -0.22471,0.11003 -0.22471,0.11921 -0.4563,0.25907 -0.77501,0.46091 -1.49273,0.75211 -2.13017,0.94014 -0.56407,-1.94904 -0.22472,-3.6642 -0.10306,-4.15949 0.86445,0.24992 3.02906,1.06853 4.37045,3.10242 0.12854,0.18803 0.23386,0.37146 0.37373,0.5595 0.28202,0.38979 1.07313,-0.39441 0.78649,-0.87363 m -6.5694,1.59134 c -0.73375,0.0711 -1.32994,-0.0136 -1.75186,-0.13986 0.12387,-1.25886 0.67185,-2.47185 1.58445,-3.4074 -0.14681,0.55035 -0.34162,1.81835 0.16743,3.54726 m 9.31412,14.0675 c -0.0618,0.0481 -0.10094,0.0986 -0.15362,0.14677 -0.0319,-0.0461 -0.0508,-0.10315 -0.0688,-0.14677 -0.14214,-0.31414 -0.36002,-0.78879 -0.65578,-1.0456 -0.5664,-0.4815 -1.07999,-0.50445 -1.61198,-0.0572 -0.6558,0.55033 -1.06853,1.47898 -1.3712,2.19898 -0.11239,-0.13533 -0.29581,-0.30498 -0.51823,-0.44713 -0.77503,-0.84152 -0.63978,-1.94445 -0.62601,-2.32968 0.017,-0.43333 -0.32563,-0.41735 -0.6466,0.17889 -1.02495,1.90317 -1.47668,2.64381 -2.614,3.77197 -0.81401,0.80942 -2.75618,1.83209 -3.14828,1.66929 -0.078,-0.0436 1.95823,-2.53835 2.19438,-4.65707 -0.0363,-0.48384 -0.36684,-0.44257 -0.64893,0 -2.18751,3.4028 -4.67999,4.75108 -5.98699,5.25324 0.18336,-0.94012 0.30723,-1.90318 0.36458,-2.87999 0.0212,0.0409 -1.56842,-0.27287 -1.56842,-2.06369 0,-1.63949 1.32765,-1.85962 1.33452,-1.83669 -0.65349,-4.90028 -2.86395,-9.01161 -5.82419,-11.24039 0.0986,-1.36204 -0.0963,-3.47618 1.73809,-5.52383 0.44945,-0.49067 2.06369,-1.462926 2.91439,-1.786234 0.27286,0.586998 0.63976,1.022674 0.98598,1.568414 0.26825,0.53656 0.12154,1.22675 -0.19037,2.18522 -0.6581,1.78164 -0.87821,2.53834 -0.89657,3.25604 -0.006,0.37608 0.28891,1.04331 0.57785,0.89426 0.7177,-2.43056 1.68534,-5.39082 1.54774,-6.38139 -0.19037,-1.073122 -1.17628,-1.499619 -1.26112,-2.62089 -0.041,-0.208643 -0.048,-0.444848 -0.0191,-0.667257 0,0 0.002,-0.0299 0.002,-0.04614 0.0848,-0.788791 0.72917,-1.683055 0.87133,-1.859616 0.63745,-0.298082 1.56153,-0.846114 2.06141,-1.288661 0.50446,-0.437958 1.17859,-1.024969 1.4079,-1.38955 0.006,-0.01615 0.0212,-0.03185 0.0299,-0.04811 0.0364,-0.06174 0.0597,-0.119216 0.0803,-0.183424 0.1583,-0.518232 -0.37608,-1.238215 -0.33935,-1.284078 0.0665,-0.05979 0.68329,0.226973 0.82776,0.940127 0.0644,0.33019 0.048,0.465451 -0.0212,0.593888 0.31187,0.185697 0.87823,0.3623 1.54779,0.974523 0.28665,0.263699 0.41735,0.77732 0.36919,1.139615 -0.6581,-0.123827 -1.3391,0.206369 -1.39415,0.437957 -0.0803,0.479231 0.0895,1.024968 0.10772,1.46981 0.008,0.1261 0.0461,0.364575 -0.004,0.415013 -0.30498,0.256808 -0.86903,-0.158203 -0.89884,0.185697 0,0.103216 0.2362,0.05719 0.34162,0.121552 0.13981,0.07339 0.2522,0.236205 0.42652,0.236205 0.10771,-0.0091 0.18569,-0.13071 0.36456,-0.282028 0.10327,-0.08482 0.16509,-0.07566 0.24304,-0.137594 0.0618,-0.05719 0.017,-0.252258 0,-0.371465 -0.0508,-0.350859 -0.0986,-0.908024 -0.0825,-1.164838 0.004,-0.05719 0.0825,-0.06174 0.13534,-0.02535 0.11919,0.105491 0.2362,0.07112 0.30725,0.06435 0.0848,-0.01615 0.18124,-0.08943 0.23159,-0.167361 0.0344,-0.03639 0.2293,-0.36919 0.22242,-0.256807 0,0.169718 0.0212,0.277476 0.0363,0.403572 0.03,0.137594 0.11473,0.506726 0.0918,0.795668 -0.0712,0.775034 -0.1925,1.329935 -0.82319,2.478726 -0.13066,0.224699 -0.24765,0.667257 -0.6191,0.761272 -1.1809,0.300354 -2.51082,-0.701656 -3.21248,-1.444586 0,0 -0.45402,-0.382903 -0.54111,-0.683311 -0.0618,-0.165088 0.20631,-0.820888 0.31186,-1.079997 0.0827,-0.215534 -0.1721,-0.229315 -0.3967,-0.05265 -0.18803,0.15132 -0.32556,0.568671 -0.32556,0.568671 -0.1995,0.49067 -0.14894,0.811715 -0.0688,1.043309 0.44257,1.02267 1.5111,1.868783 1.21071,3.136808 -0.49302,2.51541 -0.6604,8.43591 -1.68996,8.43591 -1.21067,0 -3.21476,-4.32458 -3.58163,-4.88408 -0.43568,-0.67184 -1.21988,-0.36002 -0.66727,0.68791 0.31415,0.59161 2.27925,5.39769 4.28331,5.56738 0.68331,0.0527 0.95848,-0.41736 1.23592,-1.33452 0.3944,-1.33452 0.80026,-4.8772 1.40331,-8.72942 0.0552,-0.36685 -0.10094,-0.76815 -0.16275,-1.011205 0.6466,0.577825 1.63948,0.807135 2.70114,0.972225 0.1857,0.0136 0.40129,0.0136 0.61684,0 -2.16917,1.69223 -3.04281,4.53554 -2.26778,7.10828 l -0.008,-0.009 c 0,0 1.06623,3.58165 0.8163,5.28763 -0.20631,1.05937 -0.80714,1.1786 -0.9493,1.27719 -0.4288,0.28665 -0.28664,0.64895 -0.2522,0.69019 0.13534,0.16509 0.28891,0.0665 0.89198,-0.15592 1.25885,-0.4884 5.67284,-2.52228 9.75667,-2.26547 0.1192,0.002 0.24305,0.039 0.36457,0.0644 0.15362,0.0552 0.3027,0.11238 0.4563,0.18803 0.27285,0.14451 0.49989,0.39896 0.69018,0.71771 0.1398,0.24537 0.23386,0.50218 0.28891,0.66267 0.0733,0.25226 0.15362,0.48385 0.23386,0.71542 0.0508,0.20637 0.0939,0.40819 0.13301,0.63054 -0.28664,0.0409 -0.80026,0.17889 -0.99288,0.45402 -0.30959,0.44713 -0.006,2.07286 0.35081,3.48993 m 4.4415,-21.395887 c -0.52966,-0.144435 -1.0433,-0.275137 -1.50188,-0.403573 -0.58247,-0.153594 -0.74065,-0.334805 -0.80256,-0.454012 -0.14214,-0.249918 -0.10326,-0.699362 0.0918,-1.307009 0.73146,-2.34343 2.89146,-9.169669 -2.41681,-15.564819 0.21097,-0.770444 1.04101,-0.976812 1.43541,-0.541174 0.42189,0.437958 0.87362,1.790829 1.32535,2.458086 0.11006,0.160478 0.61682,0.371467 0.80026,0.371467 0,0 3.43717,-0.389796 5.93654,-0.793376 1.43082,4.063178 1.4377,8.635405 1.0112,12.19642 -0.0527,-0.100881 -0.10772,-0.185697 -0.17423,-0.26825 -0.27748,-0.353133 -0.65121,-0.552613 -1.09376,-0.591612 h -0.0416 c -1.43311,-0.132983 -2.04763,1.478976 -2.13477,2.63006 -0.0508,-0.01615 -0.10304,-0.03898 -0.15595,-0.05719 -0.30497,-0.153592 -0.77733,-0.373739 -1.16941,-0.373739 -0.74753,0.01169 -1.16027,0.33708 -1.25886,1.008914 -0.0871,0.541174 0.006,1.132736 0.14895,1.689932 m -8.97185,-29.641732 c 0.12621,0.300358 0.53195,0.756689 0.80254,1.036435 0.14682,0.144414 0.078,0.21781 -0.16041,0.18115 -0.39668,-0.05265 -0.9745,-0.116942 -1.20382,-0.0481 -0.22696,0.06878 -0.66497,0.483846 -0.9447,0.772737 -0.16509,0.165087 -0.2362,0.116941 -0.2063,-0.1261 0.0416,-0.371466 0.10771,-0.894273 0.0228,-1.123572 -0.0848,-0.243029 -0.5205,-0.724581 -0.79565,-1.020381 -0.14894,-0.15132 -0.0895,-0.222424 0.1398,-0.188034 0.37837,0.06174 0.93554,0.13071 1.22446,0.05069 0.27287,-0.07793 0.64659,-0.421902 0.91031,-0.708532 0.17657,-0.197212 0.25226,-0.151319 0.20865,0.107764 -0.0597,0.339356 -0.10326,0.791081 0.002,1.066244 m -5.38164,16.456795 h 0.93554 l 0.0127,1.515666 h 0.90343 l 0.006,-2.95108 0.39669,-1.098345 0.36919,1.098345 0.006,1.476688 0.51361,-0.323302 0.47234,0.304972 v -1.442275 l 0.35542,-1.118977 0.35542,1.123566 0.004,2.925853 h 0.66496 v -0.6053 c 0,-0.68102 0.70853,-0.967641 0.70853,-0.967641 0,0 0.72,0.353135 0.72,0.967641 v 0.605328 h 0.86447 v -0.474682 h 0.69247 l 0.006,-0.628271 0.91031,-0.428794 0.88739,0.428794 v 1.151084 h 1.52025 c 0.0986,0.39896 0.19037,0.797956 0.25908,1.183182 -2.49936,0 -9.22469,0.0091 -9.83233,0.0091 -0.6558,0 -0.4953,0.754393 0.14894,0.754393 3.11848,-0.0072 7.1312,0.27748 9.82776,0.827773 0.0918,2.329678 -0.42417,4.471328 -0.9814,6.252986 -0.32564,1.015792 -0.31875,1.82522 0.0227,2.446616 0.40586,0.738347 1.16714,1.015798 1.7037,1.160257 0.12854,0.03185 0.36685,0.103153 0.70624,0.188034 -0.4609,0.394411 -0.51134,0.990577 -0.52277,1.212997 -0.0986,1.33452 0.88508,2.48561 1.60508,3.32713 0.0918,0.10776 0.16276,0.20176 0.23621,0.29118 -0.26831,0.13988 -0.76128,0.48385 -0.83923,0.8209 -0.12599,0.50907 0.71769,1.88942 1.54088,3.08636 -0.16509,-0.13071 -0.34162,-0.2568 -0.52512,-0.3233 -0.69249,-0.25454 -1.19923,-0.094 -1.5386,0.50445 -0.41728,0.73147 -0.48385,1.74269 -0.52277,2.53605 -0.23388,-0.14216 -0.63289,-0.28203 -1.00434,-0.28203 -0.0461,0 -0.0895,0 -0.13981,0.009 -0.80944,0.0665 -1.13963,0.78421 -1.24969,1.02039 l -0.0128,0.0227 c -0.16276,-0.11237 -0.40132,-0.22932 -0.75439,-0.30035 -0.33021,-0.0757 -0.60535,-0.094 -0.80256,-0.10316 2.66904,-2.03389 3.43949,-5.77145 1.65555,-8.70649 -1.77938,-2.941904 -5.48942,-4.021901 -8.55287,-2.59566 -0.58238,0.0617 -1.13503,-0.238478 -1.13503,-0.238478 0,0 0.3302,-0.644326 0.63972,-1.366624 0.21982,-0.508937 0.40786,-1.098211 0.46982,-1.983302 0.041,-0.454012 -0.0319,-0.974525 -0.0712,-1.529426 -0.0689,-0.765862 0.008,-2.148534 -0.41963,-3.136814 -1.10294,-2.515408 -3.20102,-2.623182 -3.20102,-2.623182 0,0 -0.24077,-1.855029 -0.38524,-2.464965 0,0 0.65121,-0.0047 1.6624,-0.0047 v -0.71983 h 0.70621 z M 140.4897,68.754507 c 0.11686,0.300356 0.52969,0.756689 0.80026,1.036435 0.14894,0.144414 0.0756,0.217809 -0.16041,0.18115 -0.39895,-0.05265 -0.97682,-0.116922 -1.20842,-0.04811 -0.23386,0.06878 -0.6558,0.483847 -0.93783,0.772737 -0.16742,0.165088 -0.24074,0.116922 -0.21098,-0.126099 0.0436,-0.371464 0.10539,-0.89427 0.0191,-1.12357 -0.0848,-0.243029 -0.51822,-0.724581 -0.7911,-1.020381 -0.14447,-0.151319 -0.0848,-0.222424 0.14448,-0.188034 0.37146,0.06174 0.93094,0.13071 1.22446,0.05069 0.27059,-0.07793 0.62828,-0.421904 0.89657,-0.708531 0.18803,-0.197213 0.26823,-0.15132 0.22013,0.107764 -0.0597,0.339355 -0.0986,0.791081 0.004,1.066244 M 124.175,65.927584 c 0.35539,-1.449167 1.58216,-1.983438 2.73095,-2.575027 0.2958,-0.146773 0.57321,-0.437958 0.76127,-0.756689 0.25217,-0.415013 0.13067,-1.043311 -0.23159,-0.701654 -0.21099,0.199486 -0.74064,0.630547 -1.3735,0.871339 -0.76127,0.309521 -0.96307,0.440231 -1.61656,1.089167 -0.0597,-0.353134 -0.0848,-1.728912 0.52967,-2.744709 0.19036,-0.318751 0.45402,-0.564056 0.76126,-0.747519 -0.19482,-0.942414 0.0128,-1.469804 0.12387,-1.492736 0.20184,-0.03898 0.69248,0.623722 0.98598,0.87363 0.29118,0.254531 0.60534,-0.05719 0.40358,-0.263698 -0.0618,-0.07112 -0.17422,-0.229315 -0.29119,-0.350861 0.0689,-0.213258 0.078,-0.419628 0.1925,-0.371464 0.078,0.04095 0.57322,0.49301 0.73146,1.183186 0.0803,0.0481 0.46091,0.08482 0.8828,0.433409 1.26115,1.075408 2.17836,3.189545 2.68512,6.234638 -0.0644,-0.03444 -0.20419,-0.321026 -0.48841,-0.325578 -0.20418,0 -0.587,0.16972 -0.68332,0.208645 -0.42416,0.197212 -1.11439,0.158202 -1.64407,-0.03901 -0.15595,-0.06435 -0.8186,-0.252256 -1.28177,-0.201759 -0.80715,0.07565 -1.41479,0.357685 -2.21964,1.114393 -0.56637,0.538835 -1.31387,0.797963 -1.31387,0.797963 -0.0416,-0.220148 -0.12855,-0.357685 -0.0416,-0.586999 0.078,-0.197213 0.30959,-0.470065 0.30959,-0.644325 0.0212,-0.376081 -0.017,-0.559505 0.0871,-1.004334 m 1.66012,3.354648 c -0.0552,0.0091 -0.73606,-0.08945 -1.56612,0.983687 -0.32557,0.440234 -0.18804,1.206121 0.0227,1.15338 0.20418,-0.04161 0.92408,-0.635162 0.91031,-0.557228 -0.0191,0.160476 -0.12386,0.398959 -0.23386,0.577833 -0.0963,0.135257 -0.68561,0.467793 -0.8484,0.742929 -0.20864,0.346244 0,0.797957 -0.041,0.85758 -0.078,0.107763 -0.25908,0.167361 -0.30037,0.126099 -0.24074,-0.238477 -0.31873,-1.116688 0.0344,-1.54548 0.13767,-0.181149 -0.50907,-0.635161 -0.38525,-1.316173 0.0941,-0.513616 0.33708,-0.713121 0.63742,-0.919491 0.49068,-0.334741 0.84841,-0.389794 1.36205,-0.797963 0.98368,-0.772737 1.32765,-1.091463 2.09808,-1.171715 0.25453,-0.02731 0.90573,0.222423 1.10064,0.272862 0.98369,0.282027 1.57987,0.11692 1.90548,-0.01827 0.1857,-0.07104 0.42189,-0.229312 0.66955,-0.183423 0.1995,0.0364 0.32557,0.300354 0.30034,0.903441 -0.34623,-0.321027 -1.59132,-0.307246 -1.68533,0.112374 -0.0733,0.380629 0.18123,1.935281 0.0941,2.061396 -0.1857,0.236205 -0.33708,0.178877 -0.66728,0.05265 -0.19249,-0.05265 -0.43105,0.112374 -0.41962,0.167361 0.0191,0.09406 0.30725,0.123826 0.41274,0.178876 0.1789,0.094 0.38752,0.178877 0.52277,0.174266 0.15128,-0.0091 0.30953,-0.151319 0.44712,-0.217809 0.10773,-0.05719 0.19038,-0.05719 0.21555,-0.110037 0.0553,-0.107764 -0.10094,-0.194939 -0.10094,-0.456288 -0.0191,-0.609944 -0.0552,-1.325352 -0.041,-1.38038 0.03,-0.0299 0.0803,-0.07565 0.133,-0.03639 0.0803,0.05069 0.13068,0.165088 0.32791,0.165088 0.11686,0.01169 0.20864,-0.07339 0.26598,-0.149046 0.0344,-0.05265 0.32791,-0.210981 0.40584,-0.160478 0.0618,0.04811 0,0.160478 -0.0107,0.346246 0,0.112374 0.0871,0.708532 0.0825,0.823182 -0.0553,0.839236 -0.43796,1.710569 -1.00663,2.59108 -0.15596,0.229314 -0.2362,0.479232 -0.41963,0.655793 -0.24081,0.231589 -0.96766,0.628274 -2.47187,-0.568668 -0.37146,-0.298082 -0.58928,-0.697067 -0.71999,-0.697067 -0.0963,0 -0.12833,0.265972 -0.12833,0.463178 0,0.240752 0.28201,0.635161 0.64203,0.969935 0.24078,0.222424 0.72688,0.502176 0.96535,0.582448 0.40586,0.144414 0.90803,0.282027 1.29555,0.435683 0.92179,0.348519 2.43974,0.997448 3.13681,1.692227 0.79337,0.788791 1.48357,2.146239 2.00408,3.932481 0.28891,0.963057 0.87592,3.538084 1.49044,5.91133 0.57321,2.219615 1.18778,4.274136 1.18319,4.255793 -1.9995,1.582159 -1.48817,4.292479 -1.5432,4.778588 -0.15595,0.0091 -1.72661,-10.109795 -2.87998,-15.000746 -0.0253,-0.103217 -0.0733,-0.227039 -0.25681,-0.208644 -0.18803,0 -0.20184,0.160477 -0.21098,0.249917 0,0.09406 1.47668,14.805842 1.60509,16.979603 -2.12331,-0.222425 -2.72636,1.309296 -3.40738,1.144202 0,0 -0.44024,0.0299 -0.44712,-0.758984 -0.004,-0.107764 -0.27288,-9.112346 -0.53202,-14.471069 -0.11006,-2.178342 -0.13067,-4.514902 -0.22468,-6.709293 -0.008,-0.20637 -0.0941,-0.447123 -0.266,-0.210916 -0.44256,0.94242 -1.49732,1.102926 -2.43286,0.908024 -0.29118,-0.103154 -1.07769,-0.222425 -2.18521,-1.45834 -0.19717,-0.160476 -0.41046,-0.0364 -0.3692,0.15132 0.36002,1.263434 1.52027,2.022417 2.34573,2.368657 0.63289,0.252256 0.96993,0.284301 1.47898,0.30497 0.0733,1.043312 0.11006,2.052227 0.11006,3.345475 -1.0089,-0.979106 -2.39846,-1.0479 -3.36151,-1.611974 -0.91491,-0.53656 -1.56154,-1.446878 -2.26778,-2.652992 0,0 -0.16275,-0.29808 -0.36684,-0.18576 -0.19717,0.112374 -0.0733,0.421901 -0.0733,0.421901 0.33936,1.226751 0.96305,2.698856 2.23568,3.648153 0.587,0.421904 1.90776,0.976812 2.50165,1.290954 1.07541,0.577834 1.35287,1.921523 1.35287,1.921523 -0.74294,1.669302 -2.08433,3.072612 -3.50599,4.613498 -1.41249,1.543186 -5.97554,5.124838 -5.86548,4.299363 0.15132,-1.052483 0.16048,-3.542674 0.16048,-4.23974 0,-3.57707 -0.19721,-4.955155 -0.13525,-7.518722 -0.69707,1.240508 -1.69681,1.460638 -2.01325,1.662419 0,0.06651 0.0986,11.13247 0.0986,11.444318 -0.46779,-0.121553 -1.29096,-1.451461 -1.66243,-2.499361 -0.0572,-0.06651 0.0319,-15.672593 0.13072,-15.711572 l 1.28636,-0.644328 c 0.0436,0.947005 0.0254,2.448917 0.0409,2.999231 1.34598,-1.664707 2.20585,-2.884579 3.7284,-3.680247 1.12356,-0.582449 3.1689,-0.928663 3.99439,-1.350573 0.58239,-0.499901 1.29095,-3.0749 1.41936,-3.87974 0.0391,-0.302697 0.0665,-0.648941 -0.10094,-0.642053 m -5.01696,-0.527393 c 0.12844,0.300356 0.54345,0.756689 0.80255,1.036434 0.14677,0.144436 0.0734,0.21781 -0.15366,0.181151 -0.40357,-0.05265 -0.97682,-0.116922 -1.2107,-0.04811 -0.22704,0.06878 -0.65809,0.483847 -0.947,0.772737 -0.15132,0.165088 -0.22931,0.116922 -0.19949,-0.126099 0.0481,-0.371464 0.0986,-0.89427 0.0117,-1.12357 -0.0734,-0.243029 -0.51362,-0.724581 -0.79108,-1.020381 -0.1376,-0.151319 -0.0871,-0.222424 0.14444,-0.188034 0.37607,0.06174 0.92636,0.13071 1.22445,0.05069 0.26597,-0.07793 0.63978,-0.421903 0.90115,-0.70853 0.17888,-0.197213 0.26369,-0.15132 0.2178,0.107763 -0.0598,0.339355 -0.10084,0.791082 0,1.066244 m -0.98367,-10.533987 c 0.12155,0.314136 0.5205,0.765861 0.80025,1.038723 0.13759,0.153657 0.0826,0.220149 -0.16281,0.183424 -0.38752,-0.05719 -0.97682,-0.116943 -1.20841,-0.04356 -0.22932,0.05719 -0.65809,0.479232 -0.93325,0.770442 -0.17198,0.165088 -0.24764,0.119215 -0.21553,-0.116942 0.0527,-0.371464 0.0964,-0.905729 0.0208,-1.128147 -0.0826,-0.243092 -0.51823,-0.726882 -0.80025,-1.020381 -0.13527,-0.15593 -0.0826,-0.222423 0.15819,-0.183423 0.3692,0.05069 0.92866,0.121552 1.22218,0.04355 0.25907,-0.07112 0.62827,-0.424176 0.89197,-0.701655 0.18342,-0.194918 0.2568,-0.169719 0.22014,0.0986 -0.0598,0.341631 -0.10322,0.797957 0.007,1.05936 m -6.56254,13.044828 c 0.1261,0.309521 0.53656,0.758977 0.80713,1.036429 0.14214,0.151319 0.0779,0.217809 -0.15821,0.194917 -0.40584,-0.06174 -0.9768,-0.128436 -1.2061,-0.05719 -0.23386,0.06435 -0.66268,0.479232 -0.94472,0.768156 -0.16508,0.171993 -0.24537,0.119195 -0.20864,-0.114668 0.0436,-0.376079 0.0964,-0.903441 0.0183,-1.128154 -0.0871,-0.240753 -0.50906,-0.731462 -0.79337,-1.02955 -0.1445,-0.149047 -0.0895,-0.21781 0.13525,-0.178878 0.38064,0.05719 0.94242,0.121553 1.23363,0.04355 0.27058,-0.07565 0.62828,-0.424176 0.89427,-0.692483 0.19491,-0.206369 0.26597,-0.176539 0.2178,0.09172 -0.0552,0.348522 -0.0895,0.791082 0.005,1.066244 m -2.5039,-7.495757 c 0.12382,0.309585 0.53427,0.756689 0.80713,1.038727 0.14905,0.144436 0.0779,0.2247 -0.15359,0.197214 -0.40585,-0.06651 -0.98371,-0.1261 -1.213,-0.06651 -0.23848,0.07104 -0.66726,0.488395 -0.94012,0.775031 -0.17199,0.16972 -0.24537,0.123826 -0.21326,-0.103217 0.0481,-0.385244 0.11003,-0.914907 0.0208,-1.141915 -0.0826,-0.247641 -0.51823,-0.726872 -0.80256,-1.022672 -0.13525,-0.15132 -0.0734,-0.222425 0.14678,-0.178877 0.38063,0.05524 0.94013,0.121552 1.22446,0.04095 0.27287,-0.08028 0.64894,-0.421901 0.90344,-0.703942 0.18803,-0.192581 0.26369,-0.165087 0.20864,0.107765 -0.0527,0.339355 -0.0871,0.788786 0.0117,1.057064 M 95.542075,96.706845 c -0.105426,-0.671842 -0.52044,-0.997449 -1.267978,-1.008916 -0.385245,0 -0.859875,0.220148 -1.162552,0.373739 -0.05719,0.01827 -0.116942,0.04094 -0.15593,0.05719 -0.08026,-0.967652 -0.527396,-2.265484 -1.524837,-2.565867 l -0.419627,-0.07104 c -0.06878,-0.0047 -0.13071,0 -0.192581,0.0072 h -0.04094 c -0.449397,0.04355 -0.816306,0.238478 -1.093757,0.596163 -0.132983,0.153593 -0.229312,0.341631 -0.302696,0.53656 -0.449397,-3.540378 -0.456286,-8.273109 1.068539,-12.480747 2.522285,0.410465 5.381645,0.747513 6.12228,0.804841 l 0.03898,0.0136 c 0.208643,0 0.385245,-0.07105 0.527396,-0.201759 0.139867,-0.137594 0.185697,-0.30497 0.288916,-0.564054 0.119216,-0.272861 0.713122,-1.644075 1.135031,-2.077452 0.371465,-0.394409 1.183188,-0.277477 1.375797,0.371465 0.0299,0.112374 0.0299,0.222425 -0.08481,0.366849 -4.643307,6.005343 -2.726368,13.152601 -1.976557,15.340114 0.119216,0.341631 0.107765,0.692478 -0.04355,0.965347 -0.100881,0.174266 -0.240752,0.298082 -0.389794,0.339355 -0.710832,0.178877 -1.36433,0.343971 -1.962801,0.48612 0.08715,-0.433406 0.1261,-0.875921 0.06174,-1.288659 m 0.550339,8.539096 c -0.07793,-0.33709 -0.570945,-0.68102 -0.839236,-0.82089 0.07565,-0.0895 0.165087,-0.18342 0.252256,-0.29119 0.715346,-0.84156 1.699033,-1.99265 1.602732,-3.32717 -0.02082,-0.2637 -0.08028,-1.047888 -0.814011,-1.401013 -0.05069,-0.0273 -0.107763,-0.04614 -0.158204,-0.06174 0.511343,-0.121554 1.057066,-0.265972 1.667002,-0.412738 0.548001,-0.139868 1.036435,-0.525121 1.320763,-1.06395 0.34852,-0.625995 0.398959,-1.405604 0.146773,-2.137067 -0.364575,-1.063949 -1.031846,-3.430311 -0.940127,-6.220884 2.694269,-0.534285 6.601529,-0.797964 9.646619,-0.791079 0.64205,0 0.80254,-0.754395 0.14214,-0.754395 -0.58699,0 -7.05095,-0.0047 -9.658084,-0.0091 0.05265,-0.389793 0.1261,-0.793373 0.229315,-1.206113 0.302696,0.0047 1.217579,0 1.217579,0 v -0.706224 h 2.64153 l -0.0136,0.621384 1.20154,0.0047 c 0,0 0.3164,-0.74751 0.3164,-1.364323 0.005,-0.332468 -0.15359,-0.708539 -0.15359,-0.708539 h 2.05911 c 0,0 -0.1536,0.304972 -0.15821,0.690188 -0.009,0.625998 0.33247,1.382674 0.33247,1.382674 h 1.15108 v -0.410464 h 1.22675 l 0.005,0.442572 0.66496,-0.0047 0.005,-0.648939 h 1.44228 v 0.671846 h 3.25605 l 0.0208,3.260632 c 0,0 -2.76994,-1.855028 -5.90445,0.06174 -0.96306,0.59389 -1.87796,1.529428 -2.24714,2.6828 -0.50216,1.529426 -0.12609,2.788279 0.0527,3.150571 0.45629,0.992859 1.48356,1.795412 2.03159,1.981145 0.46545,0.428791 0.81401,1.075408 1.16484,1.254263 0.22704,0.121553 0.49989,-0.1261 0.7498,-0.13071 0.13072,0 0.21782,0.215534 0.43335,0.341632 0.27059,0.15593 0.38751,0.197212 0.47468,0.268312 0.17199,0.15593 0.42652,0.33474 0.70624,0.376015 0.52278,0.08028 0.85529,-0.304972 1.13274,-0.625999 0.11922,-0.144435 0.42652,0.433408 0.39896,0.447122 -0.9837,0.327911 -1.573,1.320771 -1.95363,2.006371 -0.39442,0.67643 -1.35287,2.84331 -1.35287,2.84331 0,0 -2.23796,-1.05249 -2.70343,-1.00204 -2.54063,0.15593 -3.77197,1.53173 -3.77197,1.53173 0,0 -1.35058,-1.13504 -3.235424,-0.44486 -1.550056,0.56868 -1.437701,1.87337 -1.437701,1.87337 l -0.999744,1.10523 0.222424,3.01528 -0.522779,0.24537 c -0.04356,-0.77967 -0.114584,-1.74732 -0.518167,-2.44667 -0.337079,-0.59851 -0.836935,-0.75898 -1.540884,-0.50446 -0.18115,0.0665 -0.364576,0.19258 -0.525121,0.32331 0.830059,-1.19695 1.669296,-2.57733 1.534009,-3.08636 m -6.441014,5.05145 c -0.300357,0 -0.541109,-0.23621 -0.541109,-0.54112 0,-0.29119 0.240752,-0.53428 0.541109,-0.53428 0.295806,0 0.534284,0.24303 0.534284,0.53428 0,0.30497 -0.238478,0.54112 -0.534284,0.54112 m 6.775793,12.18954 c 0,0.29119 -0.243029,0.53429 -0.541175,0.53429 -0.29119,0 -0.534285,-0.24304 -0.534285,-0.53429 0,-0.2912 0.243029,-0.53195 0.534285,-0.53195 0.298082,0 0.541175,0.24075 0.541175,0.53195 m -2.826446,-9.2338 c 0.272862,1.53402 1.401022,4.10676 2.749299,6.45707 -0.13071,0.23386 -0.197212,0.51133 -0.188034,0.80713 0.0047,0.13071 0.02276,0.2637 0.06435,0.38979 -1.456051,-0.71311 -2.217321,-1.15107 -2.258594,-1.34369 -0.05069,-0.22014 0.04161,-0.35313 0.15593,-0.52511 0.107764,-0.15594 0.229312,-0.34853 0.213258,-0.626 -0.0364,-0.63971 -0.97223,-0.94241 -1.8,-1.21299 -0.339355,-0.10315 -0.653499,-0.19722 -0.859868,-0.31413 -0.437957,-0.22016 -0.823189,-0.41502 -0.88968,-0.95848 -0.06651,-0.42651 0.249917,-0.55723 0.740632,-0.69478 0.24303,-0.0665 0.444848,-0.1261 0.54345,-0.24992 0.421904,-0.50672 -0.31186,-1.16025 -1.03414,-1.7977 -0.479232,-0.4288 -1.024961,-0.92866 -0.947003,-1.18089 0.07339,-0.27748 0.369189,-0.30959 0.848408,-0.31876 0.401298,-0.009 0.820888,-0.0161 1.02038,-0.34396 0.185761,-0.31414 -0.08482,-0.92638 -0.364575,-1.52255 -0.05981,-0.11238 -0.103217,-0.20637 -0.128437,-0.26832 -0.09633,-0.24764 -0.265972,-0.82547 0.06174,-1.10751 l 0.116942,-0.0711 0.05524,-0.0273 c 0.309521,-0.094 0.609942,0.11237 0.965353,0.63289 0.03185,0.0526 0.07339,0.13071 0.135258,0.22931 0.341631,0.58472 0.699361,1.17173 1.068532,1.213 0.389794,0.0436 0.639711,-0.26597 0.864455,-0.56867 0.229314,-0.29119 0.442573,-0.55262 0.715415,-0.44485 0.256808,0.0986 0.304972,0.83465 0.348522,1.48815 0.06174,0.94013 0.132984,1.91006 0.793373,1.91006 0.15132,-0.002 0.33019,-0.12382 0.527397,-0.27058 0.204096,-0.14216 0.442572,-0.31875 0.662674,-0.31875 0.123826,0 0.238478,0.0618 0.355409,0.16971 0.376081,0.39442 0.291194,0.80714 0.206371,1.28179 -0.05265,0.24075 -0.15593,0.54573 -0.291192,0.85988 -0.293532,0.8186 -0.635161,1.74496 -0.151319,2.17146 0.210917,0.18575 0.433407,0.20182 0.630547,0.2178 0.208643,0.0162 0.366849,0.0273 0.504449,0.19949 0.08715,0.11231 0.114669,0.59161 -0.135256,2.04076 -0.35541,-0.18342 -0.745223,-0.30497 -1.123564,-0.30497 -0.215534,0 -0.41274,0.0416 -0.591615,0.11694 -1.394139,-2.27006 -2.730956,-4.6754 -3.196434,-6.01452 -0.240753,-0.50672 -0.55723,-0.30036 -0.387519,0.30035 m 13.66623,18.99515 c 0,0.29118 -0.24537,0.52512 -0.53656,0.52512 -0.29581,0 -0.53428,-0.23386 -0.53428,-0.52512 0,-0.30036 0.23847,-0.54112 0.53428,-0.54112 0.29119,0 0.53656,0.24076 0.53656,0.54112 m -0.31641,-3.56102 c -2.24942,-1.75184 -4.58599,-3.73987 -5.55363,-4.91847 -0.40585,-0.3944 -0.63055,-0.0986 -0.25909,0.40812 0.81173,1.40103 2.87771,3.53351 5.0423,5.31058 -0.14449,0.31876 -0.16972,0.64205 -0.10321,0.96765 -1.11899,-0.12384 -2.28842,-0.29354 -2.41911,-0.47924 -0.11923,-0.1857 -0.0848,-0.34163 -0.039,-0.53429 0.0572,-0.19258 0.10315,-0.42189 -0.009,-0.66955 -0.2041,-0.47234 -0.89886,-0.53428 -1.48127,-0.53428 -0.21553,0 -0.4219,0.009 -0.63743,0.0183 -0.35541,0.0136 -0.70166,0.0183 -0.91032,0 -0.4884,-0.0665 -0.908028,-0.11691 -1.162554,-0.60532 -0.210916,-0.38524 0.03899,-0.61683 0.460903,-0.91261 0.199491,-0.13071 0.364571,-0.2637 0.419631,-0.42191 0.21097,-0.60767 -0.69707,-0.9768 -1.595923,-1.33452 -0.607669,-0.24075 -1.286365,-0.51362 -1.300127,-0.7842 -0.0273,-0.28664 0.236205,-0.4013 0.676436,-0.58011 0.380629,-0.1445 0.77732,-0.29581 0.852991,-0.67644 0.05979,-0.36002 -0.396685,-0.83464 -0.88051,-1.30012 -0.08482,-0.0848 -0.160477,-0.16509 -0.208643,-0.21098 -0.188035,-0.21326 -0.589274,-0.74752 -0.282026,-1.12357 l 0.06651,-0.0711 c 0.263698,-0.21554 0.628274,-0.13071 1.141908,0.24537 0.05719,0.0363 0.119216,0.10322 0.201759,0.16738 0.479232,0.39213 0.969937,0.7865 1.332235,0.7865 0.0299,0 0.0688,-0.005 0.10084,-0.009 0.37374,-0.0895 0.50217,-0.48384 0.61221,-0.84153 0.13071,-0.40585 0.23621,-0.64432 0.5159,-0.64432 0.27975,0 0.56866,0.67643 0.84382,1.26343 0.3348,0.77502 0.69019,1.57069 1.19694,1.57069 h 0.0136 c 0.0617,0 0.13071,-0.0136 0.19493,-0.0344 0.13988,-0.0644 0.26826,-0.23387 0.39897,-0.43569 0.17888,-0.2637 0.37608,-0.56406 0.65809,-0.56406 0.0734,0 0.15359,0.0273 0.24764,0.0757 0.49528,0.23386 0.55717,0.6512 0.63743,1.12586 0.0344,0.24537 0.0344,0.56866 0.0344,0.91261 -0.005,0.86904 -0.005,1.84585 0.60533,2.08203 0.23159,0.094 0.46545,0.0552 0.66266,-0.009 0.20637,-0.0572 0.37836,-0.0802 0.54801,0.0183 0.13759,0.0848 0.35768,0.63289 0.68789,2.58192 -0.14449,-0.0299 -0.26369,-0.0299 -0.39667,-0.0299 -0.3577,0 -0.66268,0.0711 -0.91492,0.19031 m 5.12025,3.84304 c 1.39644,1.17631 4.60663,2.72867 7.55541,3.6986 0.22704,0.0779 0.44257,0.1445 0.65121,0.21554 -1.08688,0.28203 -2.9121,0.74751 -3.64356,0.74751 -0.1903,0 -0.22703,-0.0183 -0.23621,-0.0344 -0.18575,-0.13533 -0.19948,-0.29353 -0.2247,-0.50218 -0.0136,-0.19258 -0.0409,-0.41046 -0.22703,-0.61222 -0.14214,-0.1582 -0.35086,-0.23386 -0.60995,-0.23386 -0.45629,0 -1.0479,0.23386 -1.5661,0.44485 -0.32331,0.12155 -0.62828,0.23848 -0.86676,0.2958 -0.23386,0.0527 -0.42651,0.0826 -0.60994,0.0826 -0.26825,0 -0.4815,-0.0734 -0.6879,-0.25908 -0.3233,-0.30036 -0.14904,-0.59617 0.13526,-1.01351 0.13298,-0.19494 0.2568,-0.37374 0.2568,-0.53194 -0.005,-0.65809 -0.99057,-0.69937 -1.95362,-0.73147 -0.6558,-0.0299 -1.38727,-0.0618 -1.48816,-0.31187 -0.12843,-0.25907 0.0871,-0.46544 0.44486,-0.77503 0.31186,-0.2637 0.62827,-0.53655 0.57093,-0.9149 -0.0507,-0.36458 -0.64894,-0.66497 -1.25426,-0.947 -0.11694,-0.0553 -0.20864,-0.0895 -0.27059,-0.12611 -0.24303,-0.13525 -0.78421,-0.49756 -0.64894,-0.947 l 0.0644,-0.13071 c 0.18116,-0.26597 0.54345,-0.29808 1.13963,-0.11694 0.0552,0.0117 0.14216,0.0527 0.24303,0.0826 0.36001,0.13987 0.90114,0.34625 1.27948,0.34625 0.14217,0 0.24765,-0.0364 0.3302,-0.0802 0.31874,-0.21098 0.30269,-0.63289 0.30269,-0.99516 -0.0161,-0.43341 -0.005,-0.70624 0.27059,-0.7865 0.25453,-0.0757 0.74751,0.4334 1.20611,0.9172 0.52512,0.55035 1.05248,1.10981 1.50878,1.10981 0.12155,0 0.2316,-0.039 0.33019,-0.12383 0.12156,-0.11467 0.17655,-0.31414 0.24764,-0.548 0.11004,-0.48385 0.23848,-0.80255 0.68102,-0.76357 0.50907,0.0598 0.71084,0.36458 0.97453,0.853 0.11692,0.22015 0.2362,0.52966 0.34624,0.8507 0.28665,0.82088 0.61222,1.73809 1.26344,1.77019 h 0.0364 c 0.25909,0 0.44258,-0.11922 0.58928,-0.22932 0.16508,-0.11919 0.30959,-0.20864 0.51822,-0.1697 0.18577,0.0436 0.71771,0.66038 2.14854,3.39133 -0.34397,-0.11231 -0.70165,-0.21553 -1.05707,-0.34625 -2.91669,-0.95159 -6.2163,-2.18751 -7.65171,-3.05426 -0.51589,-0.2362 -0.62139,0.11921 -0.0986,0.47923 m 17.01858,-1.25427 c 2.8456,-1.44688 4.89324,-5.45273 4.89324,-10.18088 0,-4.6754 -1.97654,-8.46113 -4.774,-9.8484 l 1.23133,0.0136 c 0,0 0.5664,-0.0344 0.60768,-0.27748 0.0416,-0.26142 -0.51135,-0.39896 -0.51135,-0.39896 l -1.34369,-0.37607 c -0.017,-0.0552 -0.0274,-0.11465 -0.0436,-0.15821 l 1.16025,-0.73833 c 0,0 0.45857,-0.33481 0.35769,-0.56405 -0.10539,-0.22705 -0.64661,-0.0572 -0.64661,-0.0572 l -1.37809,0.43796 c -0.0527,-0.0526 -0.0941,-0.0986 -0.15127,-0.14677 l 0.65801,-1.22591 c 0,0 0.19505,-0.45401 -0.0191,-0.58699 -0.20865,-0.14905 -0.54802,0.18803 -0.54802,0.18803 l -0.99745,1.08686 c -0.0803,-0.0254 -0.15829,-0.0526 -0.2431,-0.0665 l -0.1857,-1.43772 c 0,0 -0.0895,-0.49301 -0.34624,-0.49301 -0.25681,0 -0.34853,0.49301 -0.34853,0.49301 l -0.1789,1.41937 c -0.0871,0.0183 -0.16743,0.0409 -0.24536,0.0688 l -0.99056,-1.07082 c 0,0 -0.36231,-0.34625 -0.57786,-0.19259 -0.20418,0.1376 0.0128,0.59162 0.0128,0.59162 l 0.63054,1.18088 c -0.0644,0.0507 -0.11919,0.10777 -0.17189,0.16282 l -1.38038,-0.43569 c 0,0 -0.48839,-0.12154 -0.60305,0.11238 -0.10094,0.23159 0.31874,0.52278 0.31874,0.52278 l 1.13046,0.7177 c -0.006,0.0572 -0.0191,0.11922 -0.0391,0.17654 l -1.37352,0.39208 c 0,0 -0.55034,0.13759 -0.52278,0.39895 0.0436,0.24303 0.61911,0.27748 0.61911,0.27748 l 1.27719,-0.0136 c -2.81578,1.38726 -4.84509,5.17299 -4.84509,9.8484 0,4.7075 2.02931,8.70649 4.86574,10.1717 -1.08689,0.17427 -1.97198,0.47235 -2.49478,0.84383 -2.38242,-2.10268 -4.23057,-5.85172 -4.63872,-10.3712 0,0 1.26115,-0.38525 1.33452,-2.293 0.0552,-1.60738 -1.33452,-2.25859 -1.33452,-2.25859 0.94242,-6.02827 4.76941,-11.20814 9.52967,-11.20814 4.79006,0 8.33732,4.89783 9.33477,11.15082 0.0389,-0.0409 -1.19008,0.53428 -1.11669,2.32508 0.0986,1.97886 1.19235,2.32969 1.19235,2.28383 -0.37373,4.67082 -2.24253,8.42216 -4.59285,10.46062 -0.4747,-0.40358 -1.37121,-0.7223 -2.51084,-0.92408 m -0.0389,1.74497 c 0.91032,0.0644 1.66701,0.16736 1.81835,0.31641 1.03185,1.00662 0.73146,5.00102 -0.10094,5.75311 -0.1124,0.11004 -0.83464,0.19721 -1.79083,0.24992 0.66725,-1.64636 0.7819,-3.9898 0.0733,-6.31947 m -4.57449,-10.59591 c 0.53654,-0.87822 1.57298,-1.10981 1.57298,-1.10981 l -0.006,0.51823 c 0,0 -0.31643,0.17887 -0.45402,0.40812 0,0.35314 0.15362,0.82319 0.51134,0.97223 0.49067,0.18343 1.22446,0.009 1.74036,-0.0757 0.15596,0.19259 0.55491,0.90802 0.853,1.16713 -0.24302,0.17888 -0.3944,0.0734 -0.48612,0.0986 -0.11006,0.0364 -0.11686,0.11695 -0.21098,0.16282 -0.0986,0.039 -0.21553,0.0254 -0.31875,0.0572 -0.0986,0.0364 -0.10772,0.12611 -0.21552,0.17888 -0.16041,0.0895 -0.24538,-0.0136 -0.41275,0.0507 -0.11473,0.0481 -0.10325,0.20409 -0.37608,0.11004 -0.22244,-0.0618 -0.47695,-0.17427 -0.6466,-0.26371 -0.58011,-0.30497 -0.80254,-0.57321 -1.11899,-0.58699 -0.50217,-0.0208 -3.02443,0.77503 -3.79031,1.09375 -0.14444,-0.50672 -0.22242,-0.89197 -0.31185,-1.43312 0.73833,-0.28202 3.59999,-1.24051 3.67107,-1.34827 m 1.57986,-2.90293 -0.0128,1.10293 c 0,0 -1.19694,0.24075 -2.05682,1.27491 -0.28203,0.20637 -2.35261,0.85756 -3.29045,1.14649 -0.0779,-0.60767 -0.11464,-1.23134 -0.11464,-1.88026 v -0.88738 c 0.85758,-0.35314 3.85452,-0.77045 5.47565,-0.75669 m 6.66802,3.43949 c -0.0803,0.6191 -0.18336,1.20611 -0.33247,1.76559 -0.67872,-0.25908 -1.78623,-0.64432 -1.84815,-0.62371 -0.35078,0.0644 -0.548,0.0644 -0.85529,-0.0848 -0.63287,-0.38063 -0.83005,-1.07771 -1.43311,-1.57528 -0.64433,0 -1.44916,0.41045 -1.81146,0.35313 -0.35769,-0.0572 -0.30725,-0.37608 -0.30725,-0.37608 0.0597,-0.0416 0.45403,-0.19258 0.45403,-0.20176 0.34851,-0.34397 1.16023,-0.63055 1.64866,-0.67184 0,0 0.82318,0.0644 1.84356,0.99515 0.65807,0.11238 2.16917,0.3623 2.64153,0.41963 m -2.26544,-1.09162 c -0.66268,-0.55489 -1.61658,-0.95389 -2.20359,-0.93555 -0.55715,0.0117 -1.50648,0.45629 -1.50648,0.45629 v -3.75363 c 0,0 0.38979,-0.28663 0.74753,0 -0.017,-0.005 -0.017,1.84127 -0.004,1.82752 1.21529,0.0572 4.10216,0.19258 5.33119,0.62138 0.0391,0.61455 -0.0128,1.77019 -0.0299,2.10955 -0.55952,-0.0757 -1.48358,-0.20863 -2.33428,-0.32557 m -5.34722,-11.21043 c 0,-0.83694 0.74524,-1.49962 1.67159,-1.49962 0.91721,0 1.66014,0.66268 1.66014,1.49962 0,0.0895 -0.0128,0.17426 -0.0253,0.2568 -0.52053,-0.16737 -1.06855,-0.2568 -1.62575,-0.2568 -0.56639,0 -1.11438,0.0895 -1.65324,0.2637 -0.017,-0.0803 -0.0272,-0.17427 -0.0272,-0.2637 m 0.19037,2.73325 c 0.65808,-0.41502 1.91464,-1.07542 2.70344,0.0757 0.49983,0.7154 1.19464,2.36866 1.38267,3.48534 -1.82981,-0.41963 -3.67796,-0.19949 -4.77631,0 -0.12154,-0.40585 1.37122,-2.72866 2.21274,-3.59312 -0.80026,0 -1.44689,0.82319 -1.91694,1.42624 -0.2637,0.0363 -0.82778,-0.47006 0.39442,-1.39414 m -0.52968,26.00022 c -1.06166,-0.0344 -1.86192,-0.11464 -2.00867,-0.23619 -0.52966,-0.47462 -1.18776,-4.30624 0.0253,-5.85172 0.12153,-0.14216 0.82777,-0.24537 1.77937,-0.30036 -0.53883,1.53631 -0.70394,4.70752 0.20418,6.38827 m 3.06802,-0.0299 c -0.77275,0.0208 -1.19464,0.009 -1.96969,0 -0.45399,-0.90802 -0.6466,-4.87948 -0.19248,-6.36764 1.02955,0 1.30928,-0.0299 2.16227,0 0.39898,1.51338 0.51135,5.44586 0,6.36764 m -1.14422,-8.55733 c -2.16228,0 -4.20992,-1.98802 -5.27158,-4.70751 0.76128,-0.3233 3.13911,-1.30012 3.42113,-1.21987 0.33021,0.16737 1.06167,0.47007 1.06167,0.49301 v 3.39363 c 0,0.49989 1.56612,0.58927 1.91006,0.11464 0.0228,-0.0117 0,-0.83005 0,-0.83005 -0.23159,0.23386 -0.85758,0.28201 -0.95846,0.0136 0,0 -0.0128,-2.36408 -0.0128,-2.40994 0,0 0.18123,0.0598 0.36684,-0.0436 0.11006,-0.0734 0.13981,-0.16737 0.23848,-0.20182 0.13301,-0.0552 0.22016,0.0344 0.38979,-0.0507 0.078,-0.0344 0.17423,-0.15132 0.25453,-0.17888 0.0986,-0.0436 0.27977,0.0183 0.37149,-0.0319 0.0848,-0.039 0.17422,-0.14214 0.26142,-0.16509 0.12854,-0.0436 0.28203,0.0757 0.548,-0.18342 0.58928,0.23386 1.01119,0.0552 1.18087,0.0552 0,0 1.19466,0.51822 1.66244,0.80484 -1.03186,3.05655 -3.06575,5.14775 -5.42522,5.14775 m 17.66748,2.31593 c 0.3623,0.31414 0.56867,0.51134 0.45402,0.77502 -0.10094,0.25454 -0.83695,0.28203 -1.49273,0.30498 -0.9539,0.0436 -1.94905,0.094 -1.94905,0.73605 0,0.16736 0.11919,0.33708 0.25908,0.53429 0.29809,0.41273 0.4609,0.72229 0.12386,1.01579 -0.19503,0.18115 -0.40819,0.26825 -0.66954,0.26825 -0.18804,0 -0.38291,-0.0436 -0.61911,-0.0964 -0.2362,-0.0481 -0.54118,-0.16736 -0.86218,-0.30035 -0.53193,-0.20637 -1.11209,-0.43341 -1.57298,-0.43341 -0.25681,0 -0.46546,0.0757 -0.60532,0.22242 -0.19037,0.21098 -0.21555,0.43107 -0.24766,0.62372 -0.0128,0.20637 -0.0253,0.36458 -0.20184,0.49756 0,0 -0.0552,0.0319 -0.23847,0.0319 -0.78878,0 -2.8456,-0.53429 -3.90038,-0.80942 0.2637,-0.0757 0.52966,-0.172 0.80256,-0.26371 2.95336,-0.96993 6.17501,-2.52229 7.56686,-3.69859 0.52051,-0.36003 0.41736,-0.71541 -0.11006,-0.47923 -1.42393,0.86675 -4.72813,2.10268 -7.64941,3.05426 -0.24074,0.0848 -0.52277,0.17655 -0.78878,0.26832 -0.004,-0.0436 -0.004,-0.0802 -0.006,-0.11465 1.31388,-2.46955 1.80687,-3.04509 1.98572,-3.08637 0.20419,-0.0409 0.36003,0.0572 0.51823,0.16737 0.15829,0.10549 0.32792,0.24303 0.59617,0.24303 h 0.0274 c 0.65578,-0.0364 0.98138,-0.95848 1.27029,-1.77708 0.11474,-0.32557 0.22244,-0.63054 0.33709,-0.85069 0.24077,-0.41963 0.43796,-0.7888 0.9837,-0.84612 0.44257,-0.0552 0.56406,0.27975 0.69477,0.75668 0.0527,0.23386 0.10326,0.43108 0.23159,0.54118 0.10094,0.0871 0.21098,0.13071 0.33935,0.13071 0.44258,0 0.97453,-0.56177 1.49044,-1.10522 0.4747,-0.49301 0.96535,-1.00892 1.21759,-0.93324 0.27288,0.094 0.28891,0.36918 0.27288,0.79337 -0.0128,0.36919 -0.0274,0.78191 0.30034,0.99516 0.0825,0.0481 0.1925,0.0802 0.32331,0.0802 0.3875,0 0.92636,-0.20637 1.28407,-0.33709 0.10094,-0.039 0.19038,-0.0756 0.24763,-0.0871 0.58701,-0.18576 0.95847,-0.14216 1.12814,0.0986 l 0.0508,0.0779 0.008,0.0208 0.006,0.0344 c 0.15595,0.4609 -0.3944,0.82318 -0.63976,0.96076 -0.0597,0.0364 -0.15595,0.0757 -0.26599,0.12384 -0.6122,0.28202 -1.20838,0.58926 -1.268,0.95158 -0.0508,0.37373 0.26142,0.6466 0.5664,0.91032 m 2.95107,-0.86904 c 0,0.28663 -0.2499,0.52512 -0.53883,0.52512 -0.30035,0 -0.53884,-0.23849 -0.53884,-0.52512 0,-0.30036 0.23849,-0.53657 0.53884,-0.53657 0.28893,0 0.53883,0.23621 0.53883,0.53657 m 5.6568,-5.92739 c 0.0733,0.14905 0.23622,0.28203 0.4288,0.41275 0.41735,0.2958 0.67185,0.52739 0.46546,0.9126 -0.25681,0.4884 -0.67415,0.53883 -1.16484,0.60533 -0.21554,0.0183 -0.55035,0.009 -0.91949,0 -0.20419,-0.009 -0.41963,-0.0183 -0.63054,-0.0183 -0.5824,0 -1.27262,0.0617 -1.48358,0.53427 -0.12153,0.24766 -0.0618,0.47697 -0.0128,0.66956 0.048,0.19258 0.0848,0.34852 -0.0363,0.53429 -0.12833,0.18575 -1.21529,0.34162 -2.29759,0.45862 0.041,-0.28436 -0.004,-0.56178 -0.11919,-0.83464 l -0.0644,-0.14214 c 2.1577,-1.76561 4.19618,-3.89351 5.01019,-5.28076 0.37602,-0.50673 0.14447,-0.80255 -0.2637,-0.40813 -0.97682,1.18548 -3.34777,3.20101 -5.61554,4.96432 -0.21781,-0.0756 -0.47468,-0.12155 -0.75669,-0.12155 -0.16509,0 -0.3348,0.009 -0.50672,0.0461 0.3348,-2.04993 0.56638,-2.62777 0.70395,-2.7126 0.17657,-0.0986 0.34163,-0.0757 0.54119,-0.0183 0.20184,0.0644 0.44484,0.10321 0.66725,0.009 0.61223,-0.23621 0.60766,-1.213 0.59844,-2.08204 0,-0.34397 -0.004,-0.66726 0.041,-0.91261 0.0825,-0.47468 0.14448,-0.89197 0.64206,-1.12587 0.0871,-0.0481 0.16742,-0.0756 0.24765,-0.0756 0.27747,0 0.47462,0.30036 0.65349,0.56405 0.133,0.20176 0.25453,0.37147 0.40358,0.43569 0.0733,0.0208 0.12599,0.0344 0.19505,0.0344 0.51132,0 0.86444,-0.79566 1.20838,-1.57069 0.26599,-0.587 0.56179,-1.26345 0.85529,-1.27262 0.27515,0 0.36458,0.24764 0.49992,0.65351 0.11239,0.35768 0.2362,0.7521 0.61681,0.84152 0.35081,0.0871 0.90803,-0.34397 1.43082,-0.77732 0.0733,-0.0644 0.15128,-0.1307 0.19717,-0.16735 0.52051,-0.37609 0.90574,-0.45174 1.14421,-0.25454 l 0.0363,0.0461 0.078,-0.0644 -0.0665,0.0848 0.0191,0.0136 c 0.29809,0.38064 -0.0986,0.9149 -0.2843,1.12357 -0.0389,0.0461 -0.11006,0.1261 -0.20631,0.20637 -0.47922,0.47006 -0.94699,0.94471 -0.87133,1.30471 0.0712,0.38063 0.4609,0.53201 0.83693,0.67644 0.44257,0.17887 0.70853,0.29353 0.6925,0.5801 -0.0253,0.27059 -0.69707,0.54345 -1.30702,0.7842 -0.87821,0.35769 -1.81834,0.72689 -1.60509,1.3437 m 4.6479,-3.83847 c 0,0.29119 -0.23849,0.53428 -0.53884,0.53428 -0.29118,0 -0.53656,-0.24309 -0.53656,-0.53428 0,-0.29119 0.24538,-0.53194 0.53656,-0.53194 0.30035,0 0.53884,0.24075 0.53884,0.53194 m 3.58166,-7.50495 c 0.10539,0.12382 0.30268,0.18342 0.54572,0.24992 0.49067,0.13759 0.80712,0.2683 0.7475,0.69478 -0.078,0.54344 -0.44711,0.73834 -0.88509,0.95846 -0.21781,0.11695 -0.53193,0.21098 -0.8507,0.31414 -0.83464,0.27059 -1.78394,0.57322 -1.82294,1.21299 -0.0128,0.27748 0.11474,0.47007 0.22016,0.626 0.1192,0.17199 0.20631,0.30497 0.15595,0.52512 -0.048,0.19258 -0.80714,0.63055 -2.25859,1.34827 0.0319,-0.13071 0.0508,-0.2637 0.0597,-0.3944 0.0128,-0.29581 -0.0508,-0.57323 -0.1857,-0.80714 1.35515,-2.35032 2.47873,-4.92305 2.74702,-6.45706 0.16975,-0.60078 -0.14449,-0.80714 -0.3898,-0.30036 -0.46545,1.33911 -1.80459,3.74445 -3.18957,6.01452 -0.18336,-0.0757 -0.37834,-0.11695 -0.59389,-0.11695 -0.37145,0 -0.76126,0.12156 -1.12584,0.30498 -0.24536,-1.44917 -0.22016,-1.92841 -0.133,-2.04077 0.133,-0.17199 0.30497,-0.18342 0.50443,-0.19948 0.19038,-0.0161 0.42192,-0.0319 0.63746,-0.21781 0.47466,-0.42652 0.12854,-1.35286 -0.16977,-2.17146 -0.11006,-0.31413 -0.22469,-0.61911 -0.27746,-0.85988 -0.0918,-0.47461 -0.17422,-0.88738 0.20631,-1.28177 0.10538,-0.10777 0.22468,-0.16972 0.35312,-0.16972 0.22015,0 0.4609,0.17653 0.67413,0.31874 0.19037,0.14678 0.35542,0.26825 0.53429,0.2706 0.64434,0 0.71313,-0.96995 0.77275,-1.91007 0.048,-0.6535 0.0939,-1.38955 0.34397,-1.48815 0.28202,-0.10776 0.49073,0.15366 0.72001,0.44485 0.24075,0.30269 0.4861,0.61222 0.86903,0.56866 0.36458,-0.0409 0.72918,-0.62826 1.06853,-1.21299 0.0597,-0.0986 0.0986,-0.17654 0.1398,-0.22931 0.33708,-0.51134 0.63515,-0.72688 0.93783,-0.63289 l 0.0871,0.039 0.10538,0.0598 c 0.33482,0.28202 0.16042,0.85987 0.0618,1.10751 -0.0253,0.0618 -0.0644,0.15593 -0.12387,0.2637 -0.2958,0.60077 -0.56179,1.21299 -0.36457,1.52713 0.18569,0.32792 0.6191,0.3348 1.02037,0.34397 0.47924,0.009 0.76587,0.0409 0.84154,0.31875 0.0803,0.25226 -0.46779,0.7521 -0.94472,1.18089 -0.71313,0.63745 -1.46063,1.29096 -1.03873,1.7977 m 2.63235,-5.75998 c 0.29582,0 0.54111,0.24303 0.54111,0.53429 0,0.30496 -0.24535,0.54117 -0.54111,0.54117 -0.29807,0 -0.53882,-0.23621 -0.53882,-0.54117 0,-0.2912 0.24075,-0.53429 0.53882,-0.53429 m 0.9539,-11.687384 c 0.13066,0 0.22697,0.04614 0.30497,0.139868 0.16275,0.222424 -0.17422,0.862169 -0.47236,1.440003 -0.44712,0.850695 -0.89196,1.728913 -0.3279,2.049933 0.0733,0.0409 0.16977,0.0598 0.30496,0.0598 0.0895,0 0.1857,-0.005 0.28666,-0.0136 0.11473,-0.009 0.22241,-0.0183 0.33478,-0.0183 0.36921,0 0.54575,0.11238 0.62374,0.40818 0.11474,0.50218 -0.11473,0.7888 -0.493,1.19925 -0.16276,0.18342 -0.42193,0.38524 -0.6902,0.60532 -0.68103,0.53194 -1.45146,1.1465 -1.25886,1.77019 0.0803,0.26825 0.2637,0.39668 0.42881,0.50444 0.16508,0.12156 0.2843,0.21093 0.32101,0.44024 0.0228,0.20176 -0.57321,0.91261 -1.24278,1.63949 -0.15829,-0.24764 -0.36694,-0.44485 -0.64206,-0.57322 l -0.0253,-0.009 -0.16274,-0.0779 c -0.03,-0.0117 -0.0618,-0.0208 -0.0895,-0.0344 0.42879,-2.55438 0.65122,-5.2624 0.41047,-6.83081 -0.008,-0.071 -0.0228,-0.14217 -0.03,-0.21092 -0.0508,-0.616832 -0.54342,-0.653497 -0.59386,-0.08482 0,0.05524 0,0.11238 -0.008,0.16282 -0.1124,1.46752 -0.55722,4.44611 -1.0754,7.13808 -0.34624,0.19721 -0.66267,0.49756 -0.91948,0.84612 -1.08919,-1.75185 -1.2772,-2.3251 -1.22906,-2.48102 0.0618,-0.21098 0.21098,-0.27748 0.40131,-0.36685 0.17655,-0.0757 0.376,-0.17426 0.50672,-0.41735 0.30497,-0.57784 -0.34397,-1.32076 -0.90803,-1.97427 -0.23386,-0.25908 -0.454,-0.50218 -0.57782,-0.70853 -0.25228,-0.41963 -0.48386,-0.77504 -0.2637,-1.2749 0.0941,-0.21554 0.24536,-0.31414 0.47922,-0.31414 0.16042,0 0.3508,0.0526 0.5343,0.10322 0.22931,0.0572 0.44256,0.11237 0.58473,0.0572 0.40583,-0.13298 0.42877,-0.57783 0.31186,-1.128157 -0.0572,-0.295808 -0.16042,-0.616834 -0.25681,-0.935538 -0.1857,-0.625998 -0.40131,-1.323058 -0.19717,-1.506496 0.20631,-0.192581 0.50446,-0.0364 0.82318,0.15593 0.23848,0.149046 0.49074,0.300355 0.73376,0.300355 0.1124,0 0.18803,-0.01827 0.27287,-0.05979 0.33708,-0.178877 0.47234,-0.846115 0.57095,-1.524845 0.0212,-0.100881 0.0363,-0.190308 0.0527,-0.252193 0.13768,-0.596164 0.35312,-0.903435 0.65578,-0.926366 l 0.10327,0.0047 0.048,0.0023 c 0.4609,0.10549 0.52277,0.7521 0.50907,1.036435 0,0.06174 -0.004,0.169719 -0.0191,0.291191 -0.048,0.662676 -0.0918,1.329936 0.20184,1.55694 0.10539,0.08715 0.24075,0.126101 0.3944,0.126101 0.13535,0 0.2843,-0.03445 0.43796,-0.08254 0.0825,-0.02535 0.1583,-0.05524 0.24993,-0.08715 0.20418,-0.06651 0.42878,-0.144415 0.59616,-0.144415 m 7.98877,-3.178086 c -0.10539,-0.39896 -0.50672,-0.623724 -0.89655,-0.515891 -0.0436,0.0047 -0.0733,0.01615 -0.0939,0.0273 -0.29346,0.103216 -4.71438,1.481269 -6.73222,2.114136 0.63055,-3.861398 0.81401,-9.259099 -0.81859,-14.078961 0.49068,-0.08943 0.9516,-0.188033 1.33224,-0.277476 0.30958,-0.07565 0.54109,-0.334741 0.56404,-0.653504 0.54326,-6.077285 -1.1719,-13.245179 -4.68016,-19.651794 -3.83615,-7.012101 -9.37372,-12.260754 -15.59001,-14.794513 -0.31414,-0.123826 -0.68561,-0.02535 -0.87821,0.252259 -0.3577,0.47468 -0.87136,1.153372 -1.44918,1.905472 -3.57478,-2.366362 -9.28202,-4.941395 -17.25934,-4.941395 -7.77782,0 -13.27642,2.393884 -16.75029,4.668533 -0.49302,-0.644327 -0.92179,-1.217578 -1.22217,-1.63261 -0.21098,-0.277479 -0.57095,-0.376081 -0.8828,-0.252259 -6.22318,2.533759 -11.76305,7.782412 -15.592344,14.794383 -3.52203,6.406615 -5.225724,13.574503 -4.689165,19.650929 0.02276,0.318751 0.254535,0.577834 0.557165,0.653505 0.376081,0.08942 0.804842,0.174266 1.27949,0.263697 -1.676179,4.787758 -1.534009,10.102912 -0.944716,13.890935 -0.123827,-0.03185 -0.259082,-0.06651 -0.350795,-0.09861 -5.711838,-1.446881 -5.725597,-1.446881 -5.879226,-1.446881 -0.330193,0 -0.619108,0.224701 -0.710829,0.538837 -1.433118,5.262412 -0.493009,24.395132 10.249672,38.338802 5.526106,7.18624 12.751328,12.00381 21.551828,14.41374 -0.54118,1.09835 -1.13503,2.20816 -1.62574,3.06803 -0.10549,0.18114 -0.10549,0.41273 -0.0161,0.61455 0.0986,0.19258 0.32103,0.17427 0.5274,0.21098 2.76763,0.39669 8.0461,1.71058 8.43591,1.72434 0.30269,0.0644 0.6535,-0.0507 0.87591,-0.2912 0.46091,-0.50217 0.97911,-1.88254 1.47668,-3.68942 1.50192,0.10777 3.03134,0.172 4.58829,0.172 h 0.0228 c 1.29324,0 2.5521,-0.0481 3.80179,-0.12383 0.49301,1.78624 1.00203,3.13911 1.46063,3.64127 0.22471,0.24076 0.56867,0.35541 0.87592,0.2912 0.38752,-0.0136 5.67057,-1.32765 8.43822,-1.72434 0.20631,-0.0363 0.43106,-0.0183 0.52966,-0.21098 0.0895,-0.20176 0.0895,-0.43341 -0.0212,-0.61456 -0.49073,-0.85069 -1.0754,-1.94904 -1.59591,-3.02675 8.5001,-2.39617 15.57398,-7.23667 21.10926,-14.48253 11.19209,-14.65909 12.21248,-34.454479 11.00177,-38.728609"
       style="fill:#191716;fill-opacity:1;fill-rule:nonzero;stroke:none;stroke-width:2.29299"
       id="path162" />
    <g
       id="g270"
       transform="matrix(2.2929909,0,0,-2.2929909,96.720627,130.76517)">
      <path
         d="M 0,0 C -0.055,0.021 -0.113,0.066 -0.173,0.148 L -0.199,0.174 0.103,0.41 0.126,0.383 C 0.189,0.302 0.225,0.232 0.237,0.181 0.24,0.136 0.218,0.091 0.162,0.048 0.096,-0.004 0.044,-0.018 0,0 M 0.384,-0.232 C 0.506,-0.141 0.55,-0.03 0.517,0.093 0.492,0.209 0.418,0.345 0.285,0.509 l -0.251,0.311 -1.05,-0.834 0.227,-0.279 0.432,0.346 0.025,-0.032 c 0.109,-0.136 0.222,-0.236 0.336,-0.303 0.126,-0.072 0.255,-0.054 0.38,0.05"
         style="fill:#191716;fill-opacity:1;fill-rule:nonzero;stroke:none"
         id="path272" />
    </g>
    <g
       id="g274"
       transform="matrix(2.2929909,0,0,-2.2929909,99.255528,132.76258)">
      <path
         d="m 0,0 c -0.026,-0.097 -0.098,-0.203 -0.214,-0.316 -0.116,-0.118 -0.223,-0.185 -0.319,-0.214 -0.029,-0.007 -0.063,-0.011 -0.091,-0.007 -0.055,0.003 -0.108,0.031 -0.156,0.079 -0.074,0.079 -0.097,0.157 -0.074,0.247 0.032,0.099 0.099,0.205 0.214,0.316 0.12,0.112 0.225,0.187 0.324,0.212 0.031,0.009 0.061,0.011 0.088,0.007 0.056,-0.003 0.107,-0.032 0.159,-0.08 C 0,0.174 0.026,0.092 0,0 m 0.054,-0.586 c 0.149,0.15 0.229,0.308 0.235,0.475 C 0.299,0.055 0.227,0.217 0.066,0.378 -0.098,0.541 -0.266,0.62 -0.43,0.613 -0.594,0.602 -0.755,0.523 -0.903,0.375 -1.056,0.223 -1.135,0.065 -1.144,-0.099 c -0.01,-0.167 0.07,-0.331 0.228,-0.491 0.137,-0.135 0.276,-0.212 0.417,-0.229 0.025,-0.001 0.051,-0.001 0.076,0 0.168,0.008 0.325,0.087 0.477,0.233"
         style="fill:#191716;fill-opacity:1;fill-rule:nonzero;stroke:none"
         id="path276" />
    </g>
    <g
       id="g278"
       transform="matrix(2.2929909,0,0,-2.2929909,101.244,134.80038)">
      <path
         d="m 0,0 c -0.048,-0.055 -0.104,-0.074 -0.154,-0.063 -0.062,0.018 -0.135,0.062 -0.217,0.131 l -0.016,0.017 0.25,0.276 0.019,-0.013 C -0.036,0.275 0.02,0.211 0.043,0.156 0.067,0.107 0.05,0.056 0,0 m 0.02,0.496 -0.29,0.26 -0.896,-0.995 0.271,-0.239 0.372,0.412 0.044,-0.039 c 0.073,-0.065 0.113,-0.122 0.113,-0.172 0,-0.052 -0.031,-0.133 -0.094,-0.239 l -0.127,-0.236 0.274,-0.24 0.18,0.344 c 0.045,0.09 0.071,0.166 0.077,0.228 0.008,0.041 -0.006,0.08 -0.032,0.127 0.07,-0.023 0.123,-0.033 0.174,-0.027 0.08,0.006 0.147,0.037 0.195,0.095 0.101,0.11 0.116,0.224 0.057,0.346 -0.06,0.116 -0.166,0.24 -0.318,0.375"
         style="fill:#191716;fill-opacity:1;fill-rule:nonzero;stroke:none"
         id="path280" />
    </g>
    <g
       id="g282"
       transform="matrix(2.2929909,0,0,-2.2929909,102.62347,138.06514)">
      <path
         d="M 0,0 0.675,0.887 0.387,1.104 -0.42,0.039 0.326,-0.522 0.463,-0.349 Z"
         style="fill:#191716;fill-opacity:1;fill-rule:nonzero;stroke:none"
         id="path284" />
    </g>
    <g
       id="g286"
       transform="matrix(2.2929909,0,0,-2.2929909,105.88364,139.26758)">
      <path
         d="m 0,0 -0.28,0.166 0.368,0.278 z m -1.042,-0.031 0.283,-0.172 0.31,0.24 0.408,-0.248 L -0.115,-0.59 0.217,-0.789 0.43,0.644 0.133,0.823 Z"
         style="fill:#191716;fill-opacity:1;fill-rule:nonzero;stroke:none"
         id="path288" />
    </g>
    <g
       id="g290"
       transform="matrix(2.2929909,0,0,-2.2929909,110.7989,139.84083)">
      <path
         d="m 0,0 -0.438,-1.26 0.342,-0.117 0.441,1.258 z"
         style="fill:#191716;fill-opacity:1;fill-rule:nonzero;stroke:none"
         id="path292" />
    </g>
    <g
       id="g294"
       transform="matrix(2.2929909,0,0,-2.2929909,113.98753,141.38584)">
      <path
         d="m 0,0 0.064,0.205 -0.925,0.283 -0.396,-1.275 0.95,-0.289 0.064,0.213 -0.601,0.183 0.107,0.35 0.551,-0.17 0.065,0.205 -0.554,0.166 0.097,0.309 z"
         style="fill:#191716;fill-opacity:1;fill-rule:nonzero;stroke:none"
         id="path296" />
    </g>
    <g
       id="g298"
       transform="matrix(2.2929909,0,0,-2.2929909,115.96478,143.40574)">
      <path
         d="m 0,0 -0.318,0.963 -0.368,0.09 -0.319,-1.295 0.303,-0.074 0.221,0.873 0.334,-1.01 0.335,-0.08 0.326,1.291 -0.305,0.076 z"
         style="fill:#191716;fill-opacity:1;fill-rule:nonzero;stroke:none"
         id="path300" />
    </g>
    <g
       id="g302"
       transform="matrix(2.2929909,0,0,-2.2929909,119.86331,145.24632)">
      <path
         d="M 0,0 0.357,-0.053 0.547,1.266 0.19,1.318 Z"
         style="fill:#191716;fill-opacity:1;fill-rule:nonzero;stroke:none"
         id="path304" />
    </g>
    <g
       id="g306"
       transform="matrix(2.2929909,0,0,-2.2929909,122.23243,144.26103)">
      <path
         d="M 0,0 0.208,0.412 0.324,-0.031 Z M 0.084,0.77 -0.609,-0.5 -0.273,-0.533 -0.099,-0.191 0.376,-0.24 0.473,-0.611 0.859,-0.646 0.43,0.732 Z"
         style="fill:#191716;fill-opacity:1;fill-rule:nonzero;stroke:none"
         id="path308" />
    </g>
    <g
       id="g310"
       transform="matrix(2.2929909,0,0,-2.2929909,127.94244,142.77424)">
      <path
         d="M 0,0 -0.317,-0.437 -0.625,0 -1.047,0.002 -0.535,-0.717 v -0.615 h 0.362 v 0.615 L 0.367,0 Z"
         style="fill:#191716;fill-opacity:1;fill-rule:nonzero;stroke:none"
         id="path312" />
    </g>
    <g
       id="g314"
       transform="matrix(2.2929909,0,0,-2.2929909,141.82375,142.66235)">
      <path
         d="M 0,0 -0.382,1.041 -0.721,0.92 -0.266,-0.334 0.619,-0.012 0.544,0.193 Z"
         style="fill:#191716;fill-opacity:1;fill-rule:nonzero;stroke:none"
         id="path316" />
    </g>
    <g
       id="g318"
       transform="matrix(2.2929909,0,0,-2.2929909,143.90625,140.9919)">
      <path
         d="m 0,0 -0.019,0.455 0.317,-0.32 z m -0.307,0.707 0.033,-1.439 0.306,0.132 -0.018,0.381 0.433,0.194 0.271,-0.276 0.35,0.162 -1.059,0.987 z"
         style="fill:#191716;fill-opacity:1;fill-rule:nonzero;stroke:none"
         id="path320" />
    </g>
    <g
       id="g322"
       transform="matrix(2.2929909,0,0,-2.2929909,147.84056,138.22633)">
      <path
         d="m 0,0 c -0.026,-0.049 -0.08,-0.1 -0.161,-0.153 l -0.033,-0.02 -0.209,0.314 0.033,0.021 C -0.28,0.22 -0.21,0.25 -0.161,0.25 -0.115,0.252 -0.072,0.227 -0.035,0.17 0.012,0.101 0.025,0.047 0,0 M -0.055,0.525 C -0.169,0.508 -0.315,0.441 -0.48,0.328 l -0.336,-0.219 0.738,-1.11 0.303,0.203 -0.305,0.455 0.032,0.024 c 0.146,0.093 0.255,0.194 0.332,0.304 0.079,0.117 0.075,0.242 -0.013,0.38 -0.084,0.125 -0.193,0.182 -0.326,0.16"
         style="fill:#191716;fill-opacity:1;fill-rule:nonzero;stroke:none"
         id="path324" />
    </g>
    <g
       id="g326"
       transform="matrix(2.2929909,0,0,-2.2929909,150.38441,137.15137)">
      <path
         d="M 0,0 -0.264,-0.188 -0.38,0.256 Z m -0.711,0.442 0.324,-1.406 0.277,0.192 -0.097,0.374 0.384,0.277 0.324,-0.213 0.313,0.222 -1.242,0.755 z"
         style="fill:#191716;fill-opacity:1;fill-rule:nonzero;stroke:none"
         id="path328" />
    </g>
    <g
       id="g330"
       transform="matrix(2.2929909,0,0,-2.2929909,152.36164,134.0031)">
      <path
         d="m 0,0 -0.139,0.164 -0.846,-0.703 0.138,-0.166 0.285,0.237 0.723,-0.858 0.28,0.229 -0.724,0.859 z"
         style="fill:#191716;fill-opacity:1;fill-rule:nonzero;stroke:none"
         id="path332" />
    </g>
    <g
       id="g334"
       transform="matrix(2.2929909,0,0,-2.2929909,154.00962,133.39407)">
      <path
         d="m 0,0 c -0.021,-0.062 -0.07,-0.129 -0.15,-0.203 l -0.012,-0.016 -0.267,0.272 0.019,0.015 c 0.078,0.075 0.151,0.124 0.203,0.145 0.052,0.017 0.102,0 0.153,-0.054 C 0,0.104 0.018,0.055 0,0 M 0.363,0.072 C 0.328,0.078 0.281,0.072 0.235,0.055 0.265,0.116 0.276,0.17 0.276,0.221 0.274,0.299 0.252,0.363 0.195,0.422 0.095,0.525 -0.022,0.554 -0.148,0.498 -0.267,0.453 -0.402,0.354 -0.551,0.213 l -0.278,-0.264 0.932,-0.963 0.257,0.247 -0.384,0.4 0.042,0.043 c 0.074,0.065 0.127,0.101 0.177,0.098 0.057,-0.004 0.133,-0.04 0.234,-0.105 L 0.658,-0.477 0.923,-0.23 0.591,-0.021 C 0.499,0.031 0.429,0.062 0.363,0.072"
         style="fill:#191716;fill-opacity:1;fill-rule:nonzero;stroke:none"
         id="path336" />
    </g>
    <g
       id="g338"
       transform="matrix(2.2929909,0,0,-2.2929909,154.08572,131.58239)">
      <path
         d="M 0,0 0.983,-0.909 1.229,-0.644 0.247,0.263 Z"
         style="fill:#191716;fill-opacity:1;fill-rule:nonzero;stroke:none"
         id="path340" />
    </g>
    <g
       id="g342"
       transform="matrix(2.2929909,0,0,-2.2929909,157.3372,130.59045)">
      <path
         d="M 0,0 -0.206,-0.248 -0.432,0.15 Z m -0.802,0.252 0.678,-1.281 0.21,0.259 -0.186,0.334 0.308,0.366 0.359,-0.127 0.25,0.295 -1.394,0.418 z"
         style="fill:#191716;fill-opacity:1;fill-rule:nonzero;stroke:none"
         id="path344" />
    </g>
    <g
       id="g346"
       transform="matrix(2.2929909,0,0,-2.2929909,119.29902,142.00403)">
      <path
         d="m 0,0 c -0.048,0.014 -0.109,0.031 -0.169,0.041 -0.212,0.045 -0.377,0.018 -0.495,-0.076 -0.12,-0.096 -0.199,-0.246 -0.243,-0.453 -0.022,-0.106 -0.028,-0.201 -0.019,-0.293 0.011,-0.098 0.037,-0.182 0.076,-0.258 0.043,-0.076 0.097,-0.143 0.168,-0.197 0.071,-0.049 0.152,-0.09 0.254,-0.11 0.023,-0.006 0.05,-0.006 0.077,-0.011 l 0.025,-0.002 c 0.035,-0.002 0.071,-0.006 0.097,-0.01 h 0.072 0.055 l 0.07,0.01 0.058,0.341 -0.135,-0.035 c -0.033,-0.009 -0.067,-0.015 -0.116,-0.023 -0.027,-0.01 -0.066,-0.01 -0.118,-0.006 l -0.016,0.006 c -0.046,0.012 -0.082,0.027 -0.11,0.056 -0.031,0.028 -0.052,0.063 -0.069,0.106 -0.011,0.049 -0.024,0.105 -0.024,0.162 0,0.065 0.004,0.135 0.024,0.205 0.011,0.067 0.029,0.129 0.045,0.184 0.014,0.047 0.032,0.082 0.055,0.109 0.015,0.018 0.036,0.035 0.06,0.043 0.027,0.008 0.075,0.008 0.123,0 0.027,-0.006 0.054,-0.014 0.079,-0.025 0.026,-0.004 0.053,-0.018 0.074,-0.028 0.025,-0.009 0.04,-0.021 0.063,-0.031 l 0.018,-0.008 c 0.011,-0.009 0.019,-0.015 0.032,-0.021 l 0.113,-0.074 0.058,0.324 -0.066,0.033 C 0.091,-0.029 0.047,-0.018 0,0"
         style="fill:#191716;fill-opacity:1;fill-rule:nonzero;stroke:none"
         id="path348" />
    </g>
    <g
       id="g350"
       transform="matrix(2.2929909,0,0,-2.2929909,108.78588,139.95731)">
      <path
         d="M 0,0 C 0.025,0.039 0.049,0.07 0.077,0.096 0.094,0.109 0.117,0.121 0.146,0.123 0.174,0.125 0.214,0.119 0.263,0.098 0.289,0.09 0.312,0.08 0.337,0.062 0.36,0.047 0.386,0.033 0.405,0.018 0.426,0.002 0.444,-0.012 0.457,-0.025 0.471,-0.033 0.481,-0.043 0.481,-0.043 L 0.603,-0.154 0.725,0.152 0.664,0.195 C 0.637,0.211 0.603,0.232 0.555,0.256 0.509,0.283 0.457,0.309 0.398,0.33 0.204,0.412 0.032,0.422 -0.101,0.35 -0.239,0.283 -0.343,0.15 -0.429,-0.043 c -0.04,-0.103 -0.067,-0.195 -0.075,-0.285 -0.006,-0.098 0,-0.188 0.026,-0.27 0.023,-0.088 0.066,-0.162 0.127,-0.224 0.056,-0.067 0.131,-0.121 0.221,-0.158 0.033,-0.014 0.068,-0.024 0.101,-0.034 0.034,-0.011 0.066,-0.019 0.093,-0.027 0.024,-0.002 0.042,-0.006 0.058,-0.01 l 0.043,-0.01 c 0.009,0 0.022,-0.003 0.022,-0.003 h 0.075 l 0.124,0.316 -0.143,-0.01 C 0.212,-0.76 0.174,-0.76 0.126,-0.76 c -0.012,0 -0.027,0 -0.041,0.006 -0.03,0.006 -0.062,0.014 -0.089,0.024 -0.044,0.021 -0.077,0.044 -0.097,0.074 -0.026,0.033 -0.04,0.076 -0.047,0.123 -0.008,0.045 -0.008,0.103 0.007,0.16 0.011,0.066 0.033,0.131 0.064,0.197 C -0.051,-0.113 -0.029,-0.053 0,0"
         style="fill:#191716;fill-opacity:1;fill-rule:nonzero;stroke:none"
         id="path352" />
    </g>
    <g
       id="g354"
       transform="matrix(2.2929909,0,0,-2.2929909,132.21956,143.72813)">
      <path
         d="M 0,0 C -0.046,-0.031 -0.116,-0.057 -0.212,-0.064 L -0.25,-0.072 -0.3,0.303 -0.261,0.311 C -0.152,0.324 -0.076,0.32 -0.03,0.299 0.014,0.275 0.038,0.234 0.046,0.166 0.061,0.084 0.043,0.029 0,0 M 0.405,0.205 C 0.386,0.357 0.315,0.451 0.197,0.494 0.081,0.527 -0.076,0.537 -0.282,0.512 l -0.397,-0.047 0.157,-1.326 0.362,0.043 -0.069,0.548 0.042,0.004 c 0.17,0.02 0.316,0.061 0.436,0.127 0.123,0.067 0.175,0.186 0.156,0.344"
         style="fill:#191716;fill-opacity:1;fill-rule:nonzero;stroke:none"
         id="path356" />
    </g>
    <g
       id="g358"
       transform="matrix(2.2929909,0,0,-2.2929909,135.20435,142.58622)">
      <path
         d="M 0,0 C 0.071,-0.076 0.123,-0.193 0.163,-0.35 0.201,-0.508 0.201,-0.637 0.177,-0.732 0.168,-0.764 0.153,-0.789 0.135,-0.811 0.097,-0.855 0.049,-0.885 -0.021,-0.902 c -0.096,-0.024 -0.177,0 -0.247,0.068 -0.068,0.076 -0.121,0.189 -0.158,0.348 -0.037,0.158 -0.04,0.289 -0.013,0.382 0.008,0.032 0.023,0.057 0.039,0.081 0.036,0.041 0.087,0.074 0.154,0.089 C -0.146,0.092 -0.064,0.068 0,0 M 0.53,-0.264 C 0.481,-0.059 0.389,0.092 0.249,0.187 0.115,0.281 -0.07,0.305 -0.29,0.252 -0.512,0.199 -0.668,0.1 -0.745,-0.045 c -0.08,-0.142 -0.097,-0.322 -0.048,-0.525 0.052,-0.207 0.145,-0.358 0.278,-0.451 0.14,-0.096 0.32,-0.116 0.541,-0.063 0.187,0.045 0.325,0.119 0.415,0.23 0.014,0.022 0.026,0.043 0.04,0.065 0.081,0.144 0.097,0.32 0.049,0.525"
         style="fill:#191716;fill-opacity:1;fill-rule:nonzero;stroke:none"
         id="path360" />
    </g>
    <g
       id="g362"
       transform="matrix(2.2929909,0,0,-2.2929909,138.13777,142.09804)">
      <path
         d="m 0,0 c 0.025,-0.07 0.01,-0.123 -0.026,-0.162 -0.047,-0.045 -0.12,-0.084 -0.227,-0.115 L -0.275,-0.283 -0.38,0.074 -0.358,0.082 C -0.256,0.111 -0.17,0.127 -0.109,0.119 -0.059,0.111 -0.021,0.072 0,0 m -0.418,0.275 -0.371,-0.109 0.386,-1.277 0.347,0.103 -0.159,0.529 0.052,0.018 c 0.097,0.025 0.167,0.031 0.207,0.004 0.045,-0.025 0.104,-0.09 0.159,-0.197 l 0.139,-0.237 0.345,0.106 -0.198,0.334 c -0.056,0.086 -0.104,0.146 -0.156,0.181 -0.032,0.026 -0.075,0.041 -0.125,0.043 0.056,0.043 0.093,0.086 0.114,0.135 0.035,0.069 0.041,0.141 0.02,0.215 C 0.301,0.26 0.21,0.338 0.07,0.352 -0.056,0.361 -0.219,0.336 -0.418,0.275"
         style="fill:#191716;fill-opacity:1;fill-rule:nonzero;stroke:none"
         id="path364" />
    </g>
  </g>
</svg>
